<?xml version="1.0" encoding="utf-8"?>
<!-- Generator: Adobe Illustrator 16.0.2, SVG Export Plug-In . SVG Version: 6.00 Build 0)  -->
<!DOCTYPE svg PUBLIC "-//W3C//DTD SVG 1.1//EN" "http://www.w3.org/Graphics/SVG/1.1/DTD/svg11.dtd">
<svg version="1.1" id="Capa_1" xmlns="http://www.w3.org/2000/svg" xmlns:xlink="http://www.w3.org/1999/xlink" x="0px" y="0px"
	 width="15px" height="15px" viewBox="0 0 15 15" enable-background="new 0 0 15 15" xml:space="preserve">
<g>
	<g>
		<path fill="#007BFF" d="M7.5,0C3.365,0,0,3.364,0,7.5S3.365,15,7.5,15c4.135,0,7.5-3.364,7.5-7.5S11.635,0,7.5,0z M7.5,14.423
			c-3.817,0-6.923-3.105-6.923-6.923S3.683,0.577,7.5,0.577s6.923,3.105,6.923,6.923S11.317,14.423,7.5,14.423z"/>
		<path fill="#007BFF" d="M11.105,7.211H7.789V4.039c0-0.16-0.129-0.289-0.289-0.289S7.211,3.879,7.211,4.039v3.173H3.894
			c-0.159,0-0.288,0.129-0.288,0.289s0.129,0.289,0.288,0.289h3.317v3.461c0,0.16,0.129,0.289,0.289,0.289s0.289-0.129,0.289-0.289
			V7.789h3.317c0.16,0,0.289-0.129,0.289-0.289S11.266,7.211,11.105,7.211z"/>
	</g>
</g>
</svg>
