<?xml version="1.0" encoding="utf-8"?>
<!-- Generator: Adobe Illustrator 16.0.2, SVG Export Plug-In . SVG Version: 6.00 Build 0)  -->
<!DOCTYPE svg PUBLIC "-//W3C//DTD SVG 1.1//EN" "http://www.w3.org/Graphics/SVG/1.1/DTD/svg11.dtd">
<svg version="1.1" id="Layer_1" xmlns="http://www.w3.org/2000/svg" xmlns:xlink="http://www.w3.org/1999/xlink" x="0px" y="0px"
	 width="480px" height="480px" viewBox="0 0 480 480" enable-background="new 0 0 480 480" xml:space="preserve">
<g>
	<path fill="#9BC9FF" d="M314.945,389.676c-4.412-1.375-8.682-3.166-12.751-5.353l-24.867,24.871l-33.373-33.372l24.872-24.867
		c-2.187-4.07-3.978-8.34-5.354-12.751H228.37v-47.223h35.102c1.376-4.412,3.167-8.682,5.354-12.751l-24.872-24.867l33.373-33.373
		l24.867,24.872c4.069-2.187,8.339-3.978,12.751-5.354v-35.102h23.611v-55.092c0,26.082-73.98,47.222-165.278,47.222
		S8,175.397,8,149.315v94.445c0,26.051,73.98,47.222,165.278,47.222c10.799,0,21.367-0.3,31.593-0.864
		c-10.234,0.564-20.794,0.864-31.593,0.864C81.981,290.981,8,269.81,8,243.76v94.444c0,26.051,73.98,47.222,165.278,47.222
		c16.409,0,32.269-0.691,47.222-1.96c-14.953,1.269-30.813,1.96-47.222,1.96C81.981,385.426,8,364.255,8,338.204v86.573
		C8,450.86,81.981,472,173.278,472s165.278-21.14,165.278-47.223h-23.611V389.676z"/>
	<path fill="#9BC9FF" d="M173.278,196.537c91.297,0,165.278-21.14,165.278-47.222V62.74c0,26.082-73.98,47.222-165.278,47.222
		S8,88.823,8,62.74v86.574C8,175.397,81.981,196.537,173.278,196.537z"/>
	<path fill="#9BC9FF" d="M370.037,314.593c0,17.386-14.096,31.481-31.481,31.481s-31.481-14.096-31.481-31.481
		s14.096-31.481,31.481-31.481S370.037,297.207,370.037,314.593z"/>
	<path fill="#9BC9FF" d="M409.389,117.833c-9.55,0.004-18.154,5.753-21.809,14.576c-3.654,8.82-1.633,18.977,5.115,25.729
		c9.219,9.215,24.168,9.215,33.388,0c6.748-6.752,8.77-16.909,5.114-25.729C427.543,123.586,418.939,117.837,409.389,117.833z"/>
</g>
<path fill="#007BFF" d="M409.946,283.66l25.959-25.959l-43.674-43.675l-25.96,25.959c-1.049-0.453-2.123-0.901-3.236-1.342v-36.712
	h-23.172V70.62c0-35.532-85.482-54.069-169.931-54.069S0,35.089,0,70.62v355.31C0,461.463,85.483,480,169.931,480
	c78.083,0,156.995-15.89,168.457-46.345h24.646v-36.712c1.113-0.441,2.188-0.891,3.236-1.343l25.96,25.959l43.674-43.675
	l-25.959-25.967c0.46-1.041,0.901-2.115,1.343-3.229H448v-61.793h-36.712C410.847,285.784,410.406,284.709,409.946,283.66z
	 M169.931,32c94.304,0,154.483,22.871,154.483,38.621s-60.179,38.621-154.483,38.621S15.448,86.37,15.448,70.62
	S75.627,32,169.931,32z M15.448,94.566c28.377,19.85,91.702,30.123,154.483,30.123s126.106-10.273,154.483-30.123v61.02
	c0,15.75-60.179,38.621-154.483,38.621S15.448,171.336,15.448,155.586V94.566z M169.931,464.552
	c-94.304,0-154.483-22.871-154.483-38.621v-61.02c28.377,19.85,91.702,30.123,154.483,30.123c15.919,0,31.722-0.656,47.001-1.946
	l-1.313-15.402c-14.792,1.26-30.203,1.9-45.688,1.9c-94.304,0-154.483-22.87-154.483-38.62v-68.744
	c28.377,19.85,91.702,30.123,154.483,30.123c10.545,0,21.117-0.294,31.436-0.863l-0.856-15.448
	c-10.032,0.577-20.321,0.863-30.58,0.863c-94.304,0-154.483-22.871-154.483-38.621v-68.744
	c28.377,19.85,91.702,30.124,154.483,30.124s126.106-10.274,154.483-30.124v22.399h-23.173v36.712
	c-1.112,0.441-2.188,0.89-3.235,1.342l-25.96-25.959l-43.675,43.675l25.96,25.959c-0.46,1.049-0.901,2.124-1.343,3.236h-36.712
	v61.793h36.712c0.441,1.113,0.883,2.188,1.343,3.229l-25.96,25.967l43.675,43.675l25.96-25.959c1.048,0.452,2.123,0.901,3.235,1.343
	v36.712h18.778C304.794,448.224,249.628,464.552,169.931,464.552z M432.552,333.241h-32.356l-1.724,5.359
	c-1.199,3.866-2.761,7.604-4.673,11.172l-2.779,5.072l23.033,23.04l-21.822,21.83l-23.019-23.048l-5.072,2.787
	c-3.564,1.916-7.306,3.481-11.172,4.673l-5.382,1.731v32.349H316.69v-32.349l-5.352-1.731c-3.866-1.191-7.607-2.757-11.172-4.673
	l-5.072-2.787l-23.048,23.048l-21.784-21.83l22.995-23.018l-2.78-5.072c-1.912-3.568-3.474-7.306-4.673-11.172l-1.724-5.382h-32.356
	v-30.896h32.356l1.724-5.359c1.199-3.866,2.761-7.604,4.673-11.171l2.78-5.073l-22.995-23.04l21.822-21.83l22.979,23.048
	l5.073-2.787c3.563-1.916,7.305-3.481,11.171-4.673l5.382-1.731v-32.348h30.896v32.348l5.353,1.731
	c3.865,1.191,7.606,2.757,11.171,4.673l5.072,2.787l23.049-23.048l21.822,21.83l-23.033,23.018l2.779,5.072
	c1.912,3.568,3.474,7.306,4.673,11.172l1.724,5.359h32.356V333.241z"/>
<path fill="#1E81CE" d="M344,272c-22.09,0-40,17.91-40,40s17.91,40,40,40s40-17.91,40-40C383.973,289.918,366.082,272.027,344,272z
	 M344,336c-13.254,0-24-10.746-24-24s10.746-24,24-24s24,10.746,24,24S357.254,336,344,336z"/>
<path fill="#007BFF" d="M446.864,128c-0.742-2.863-1.887-5.609-3.398-8.152l12.129-12.137l-11.313-11.313l-12.129,12.137
	c-2.543-1.512-5.289-2.656-8.152-3.398V88h-16v17.137c-2.863,0.742-5.609,1.887-8.152,3.398l-12.129-12.137l-11.313,11.313
	l12.129,12.137c-1.512,2.543-2.656,5.289-3.398,8.152H368v16h17.137c0.742,2.863,1.887,5.609,3.398,8.152l-12.129,12.137
	l11.313,11.313l12.129-12.137c2.543,1.512,5.289,2.656,8.152,3.398V184h16v-17.137c2.863-0.742,5.609-1.887,8.152-3.398
	l12.129,12.137l11.313-11.313l-12.129-12.137c1.512-2.543,2.656-5.289,3.398-8.152H464v-16H446.864z M416,152
	c-8.836,0-16-7.164-16-16s7.164-16,16-16s16,7.164,16,16S424.836,152,416,152z"/>
</svg>
