<?xml version="1.0" encoding="utf-8"?>
<!-- Generator: Adobe Illustrator 16.0.2, SVG Export Plug-In . SVG Version: 6.00 Build 0)  -->
<!DOCTYPE svg PUBLIC "-//W3C//DTD SVG 1.1//EN" "http://www.w3.org/Graphics/SVG/1.1/DTD/svg11.dtd">
<svg version="1.1" id="Layer_1" xmlns="http://www.w3.org/2000/svg" xmlns:xlink="http://www.w3.org/1999/xlink" x="0px" y="0px"
	 width="480px" height="480px" viewBox="0 0 480 480" enable-background="new 0 0 480 480" xml:space="preserve">
<path fill="#9BC9FF" d="M176.001,384l-96-96v40l96,96l72-72v-40L176.001,384z"/>
<path fill="#9BC9FF" d="M368.001,152l-92-92l-84.582,81.129l96.344,91.113L368.001,152z"/>
<path fill="#9BC9FF" d="M80.001,248l96,96l72-72l-97.582-91.535L80.001,248z"/>
<path fill="#9BC9FF" d="M288.001,312l80-80v-40l-80,80V312z"/>
<path fill="#9BC9FF" d="M248.001,312v-40l-72,72l-96-96v40l96,96L248.001,312z"/>
<path fill="#9BC9FF" d="M288.001,232.48V272l80-80v-40l-80.238,80.242L288.001,232.48z"/>
<g>
	<path fill="#007BFF" d="M72.001,244.586v86.727l104,104l200-200v-86.621l-99.879-99.891L72.001,244.586z M356.689,152
		l-69.094,69.098l-84.801-79.801l73.086-70.094L356.689,152z M360.001,188.691l-64,64V235.32l64-64V188.691z M88.001,267.312l88,88
		l64-64v17.379l-64,64l-88-88V267.312z M91.435,248.113l58.801-56.391l86.254,80.48l-60.488,60.488L91.435,248.113z
		 M161.833,180.625l29.449-28.246l88.719,83.551v72.762l-24,24v-64.168L161.833,180.625z M88.001,324.691v-17.379l88,88l64-64
		v17.379l-64,64L88.001,324.691z M296.001,292.691v-17.379l64-64v17.379L296.001,292.691z"/>
	<path fill="#007BFF" d="M240.001,464c-123.711,0-224-100.285-224-224c0-123.711,100.289-224,224-224
		c54.578-0.199,107.313,19.738,148.105,56h-44.105v16h72.074l-0.074-72h-16l0.047,45.227C356.177,21.613,299.111-0.219,240.001,0
		c-132.547,0-240,107.453-240,240c0,132.551,107.453,240,240,240c4.367,0,8.707-0.117,13.016-0.352l-0.863-16
		C248.134,463.883,244.083,464,240.001,464z"/>
	<path fill="#007BFF" d="M267.544,462.328l1.945,15.875c5.41-0.656,10.914-1.523,16.344-2.578l-3.039-15.703
		C277.724,460.898,272.595,461.715,267.544,462.328z"/>
	<path fill="#007BFF" d="M450.891,315.699l15.063,5.406c1.863-5.199,3.559-10.496,5.047-15.762L455.602,301
		C454.207,305.906,452.633,310.851,450.891,315.699z"/>
	<path fill="#007BFF" d="M422.25,370.265l13.008,9.313c3.199-4.441,6.27-9.082,9.168-13.77l-13.602-8.406
		C428.106,361.785,425.227,366.113,422.25,370.265z"/>
	<path fill="#007BFF" d="M438.465,344l14.16,7.441c2.543-4.801,4.969-9.863,7.199-14.918l-14.648-6.402
		C443.09,334.777,440.801,339.465,438.465,344z"/>
	<path fill="#007BFF" d="M464,240c0,5.121-0.176,10.313-0.52,15.449l15.961,1.074C479.817,251.035,480,245.472,480,240H464z"/>
	<path fill="#007BFF" d="M459.274,286.019l15.664,3.262c1.121-5.367,2.063-10.848,2.816-16.305l-15.855-2.168
		C461.199,275.883,460.321,281.008,459.274,286.019z"/>
	<path fill="#007BFF" d="M402.595,394.074L414.2,405.09c3.785-4,7.472-8.168,10.968-12.391l-12.366-10.195
		C409.603,386.457,406.13,390.344,402.595,394.074z"/>
	<path fill="#007BFF" d="M297.825,456.48l4.137,15.449c5.297-1.418,10.617-3.031,15.824-4.801L312.603,452
		C307.747,453.64,302.779,455.203,297.825,456.48z"/>
	<path fill="#007BFF" d="M327.009,446.472l6.199,14.746c5.02-2.105,10.066-4.441,15.012-6.945L341.001,440
		C336.376,442.328,331.673,444.504,327.009,446.472z"/>
	<path fill="#007BFF" d="M354.497,432.57l8.215,13.734c4.801-2.855,9.449-5.863,13.891-8.941l-9.105-13.16
		C363.267,427.14,358.935,429.929,354.497,432.57z"/>
	<path fill="#007BFF" d="M379.872,414.969l9.984,12.504c4.266-3.398,8.488-7.031,12.563-10.781l-10.832-11.77
		C387.786,408.418,383.841,411.801,379.872,414.969z"/>
</g>
</svg>
