<svg height="512" viewBox="0 0 512 512" width="512" xmlns="http://www.w3.org/2000/svg"><g><g fill="#57a4ff"><path d="m16 472h480v24h-480z"/><path d="m104 320h112v128h-112z"/><path d="m64 192h192v96h-192z"/><path d="m64 64h192v96h-192z"/><path d="m344 328h80v96h-80z"/><path d="m344 200h80v96h-80z"/></g><g fill="#004fac"><path d="m496 464h-8v-288a7.99 7.99 0 0 0 -4.92-7.38l-187.08-77.95v-74.67a8 8 0 0 0 -8-8h-256a8 8 0 0 0 -8 8v448h-8a8 8 0 0 0 -8 8v24a8 8 0 0 0 8 8h480a8 8 0 0 0 8-8v-24a8 8 0 0 0 -8-8zm-200-356 176 73.33v282.67h-176zm-256-84h240v440h-40v-16a8 8 0 0 0 -8-8h-8v-120a8 8 0 0 0 -8-8h-112a8 8 0 0 0 -8 8v120h-8a8 8 0 0 0 -8 8v16h-40zm184 432v8h-128v-8zm-112-16v-112h40v112zm56 0v-112h40v112zm320 48h-464v-8h464z"/><path d="m256 296a8 8 0 0 0 8-8v-96a8 8 0 0 0 -8-8h-192a8 8 0 0 0 -8 8v96a8 8 0 0 0 8 8zm-184-96h176v80h-176z"/><path d="m64 168h192a8 8 0 0 0 8-8v-96a8 8 0 0 0 -8-8h-192a8 8 0 0 0 -8 8v96a8 8 0 0 0 8 8zm8-96h176v80h-176z"/><path d="m432 416v-88a8 8 0 0 0 -8-8h-80a8 8 0 0 0 -8 8v88a8 8 0 0 0 0 16h96a8 8 0 0 0 0-16zm-16 0h-64v-80h64z"/><path d="m432 288v-88a8 8 0 0 0 -8-8h-80a8 8 0 0 0 -8 8v88a8 8 0 0 0 0 16h96a8 8 0 0 0 0-16zm-16 0h-64v-80h64z"/></g></g></svg>