<svg height="480pt" viewBox="0 0 480 480" width="480pt" xmlns="http://www.w3.org/2000/svg"><path d="m80 8v368h96v96h224v-464zm48 112h224v80h-224zm0 0" fill="#9bc9ff"/><g fill="#1e81ce"><path d="m480 48h-72v-48h-336v48h-72v384h96v-16h-80v-352h56v315.3125l100.6875 100.6875h235.3125v-48h72zm-312 404.6875-68.6875-68.6875h68.6875zm224 11.3125h-208v-96h-96v-352h304zm72-48h-56v-352h56zm0 0"/><path d="m200 48h16v16h-16zm0 0"/><path d="m232 48h128v16h-128zm0 0"/><path d="m200 80h16v16h-16zm0 0"/><path d="m232 80h128v16h-128zm0 0"/><path d="m200 384h16v16h-16zm0 0"/><path d="m232 384h128v16h-128zm0 0"/><path d="m200 416h16v16h-16zm0 0"/><path d="m232 416h128v16h-128zm0 0"/><path d="m360 112h-240v96h240zm-16 80h-208v-64h208zm0 0"/><path d="m120 256h16v16h-16zm0 0"/><path d="m152 256h208v16h-208zm0 0"/><path d="m120 288h16v16h-16zm0 0"/><path d="m152 288h208v16h-208zm0 0"/><path d="m120 320h16v16h-16zm0 0"/><path d="m152 320h208v16h-208zm0 0"/><path d="m416 112h32v16h-32zm0 0"/><path d="m416 144h32v16h-32zm0 0"/><path d="m416 176h32v16h-32zm0 0"/><path d="m416 208h32v16h-32zm0 0"/><path d="m416 240h32v16h-32zm0 0"/><path d="m416 272h32v16h-32zm0 0"/><path d="m416 304h32v16h-32zm0 0"/><path d="m416 336h32v16h-32zm0 0"/><path d="m32 112h32v16h-32zm0 0"/><path d="m32 144h32v16h-32zm0 0"/><path d="m32 176h32v16h-32zm0 0"/><path d="m32 208h32v16h-32zm0 0"/><path d="m32 240h32v16h-32zm0 0"/><path d="m32 272h32v16h-32zm0 0"/><path d="m32 304h32v16h-32zm0 0"/><path d="m32 336h32v16h-32zm0 0"/></g></svg>