<svg height="482pt" viewBox="0 -1 482.60102 482" width="482pt" xmlns="http://www.w3.org/2000/svg"><path d="m266.601562 368.300781h80v80h-80zm0 0" fill="#78b9eb"/><path d="m370.601562 368.300781h80v80h-80zm0 0" fill="#78b9eb"/><path d="m370.601562 264.300781h80v80h-80zm0 0" fill="#78b9eb"/><path d="m266.601562 264.300781h80v80h-80zm0 0" fill="#78b9eb"/><path d="m242.601562 200.300781v40h232v-40zm0 0" fill="#78b9eb"/><path d="m378.601562 8.300781v64h64zm0 0" fill="#78b9eb"/><path d="m130.679688 336.300781h-.078126l-10.640624-31.121093-10.71875-31.039063-38.960938-113.121094-15.601562-45.359375c-2.050782-5.980468-6.394532-10.902344-12.078126-13.679687-8.710937-4.320313-19.164062-2.945313-26.464843 3.476562-7.296875 6.421875-9.988281 16.617188-6.816407 25.804688l15.601563 45.4375 17.679687 51.359375 60.480469 175.523437 43.519531 52.71875.640626-24 .878906-32 .320312-12.320312-6.800781-19.679688zm0 0" fill="#78b9eb"/><g fill="#1a6fb0"><path d="m474.601562 192.300781h-24v-120h-.074218c.027344-2.113281-.789063-4.148437-2.269532-5.65625l-64-64c-1.507812-1.480469-3.546874-2.292969-5.65625-2.265625v-.078125h-336c-4.417968 0-8 3.582031-8 8v83.320313c-10.765624-.894532-21.253906 3.707031-27.882812 12.238281-6.625 8.53125-8.496094 19.832031-4.964844 30.042969l32.847656 95.40625v242.992187c0 4.417969 3.582032 8 8 8h432c4.417969 0 8-3.582031 8-8v-272c0-4.417969-3.582031-8-8-8zm-8 40h-216v-24h216zm-232 16v16h-120v.800781l-34.113281-99.089843 7.570313-2.597657 23.4375 68.0625 15.128906-5.199218-3.441406-9.976563h111.417968v16h-120v16zm-94.457031 150.992188-.960937 35.472656-22.589844-27.359375zm-105.039062-217.65625 30.253906-10.398438 72.929687 211.789063-30.257812 10.402344zm120.808593 226.664062h78.6875v16h-79.121093zm.429688-16 .113281-4.113281c.007813-.867188-.125-1.734375-.398437-2.558594 0-.082031 0-.175781 0-.257812l-3.160156-9.070313h81.703124v16zm-8.941406-32-5.511719-16h92.710937v16zm-11.023438-32-5.507812-16h103.730468v16zm-11.019531-32-5.511719-16h114.753906v16zm261.242187-268.6875 36.6875 36.6875h-36.6875zm-336-11.3125h320v56c0 4.417969 3.582032 8 8 8h56v112h-192c-4.417968 0-8 3.582031-8 8h-116.921874l-17.101563-49.664062c-1.441406-4.171875-5.984375-6.394531-10.160156-4.960938l-15.136719 5.207031-13.023438-37.78125c-2.160156-6.28125-6.238281-11.726562-11.65625-15.570312zm-32.976562 100.167969c1.84375-3.824219 5.144531-6.746094 9.160156-8.121094 8.355469-2.878906 17.46875 1.5625 20.34375 9.921875l13.015625 37.824219-30.246093 10.398438-13.027344-37.808594c-1.390625-4.007813-1.117188-8.40625.753906-12.214844zm32.976562 347.832031v-188.519531l44.902344 130.398438c.042969.113281.121094.191406.160156.304687.222657.5625.507813 1.101563.847657 1.601563.105469.140624.175781.300781.289062.4375.027344.054687.0625.109374.097657.160156l43.535156 52.703125c1.519531 1.84375 3.78125 2.914062 6.167968 2.914062.882813 0 1.761719-.148437 2.597657-.441406 3.15625-1.082031 5.308593-4.007813 5.402343-7.34375l.441407-16.214844h79.558593v24zm200 0v-216h216v216zm0 0"/><path d="m346.601562 360.300781h-80c-4.417968 0-8 3.582031-8 8v80c0 4.417969 3.582032 8 8 8h80c4.417969 0 8-3.582031 8-8v-80c0-4.417969-3.582031-8-8-8zm-8 80h-64v-64h64zm0 0"/><path d="m346.601562 256.300781h-80c-4.417968 0-8 3.582031-8 8v80c0 4.417969 3.582032 8 8 8h80c4.417969 0 8-3.582031 8-8v-80c0-4.417969-3.582031-8-8-8zm-8 80h-64v-64h64zm0 0"/><path d="m450.601562 360.300781h-80c-4.417968 0-8 3.582031-8 8v80c0 4.417969 3.582032 8 8 8h80c4.417969 0 8-3.582031 8-8v-80c0-4.417969-3.582031-8-8-8zm-8 80h-64v-64h64zm0 0"/><path d="m450.601562 256.300781h-80c-4.417968 0-8 3.582031-8 8v80c0 4.417969 3.582032 8 8 8h80c4.417969 0 8-3.582031 8-8v-80c0-4.417969-3.582031-8-8-8zm-8 80h-64v-64h64zm0 0"/><path d="m202.601562 32.300781h80v16h-80zm0 0"/><path d="m114.601562 72.300781h256v16h-256zm0 0"/><path d="m114.601562 104.300781h256v16h-256zm0 0"/><path d="m114.601562 136.300781h256v16h-256zm0 0"/><path d="m114.601562 168.300781h256v16h-256zm0 0"/></g></svg>