<?xml version="1.0" encoding="utf-8"?>
<!-- Generator: Adobe Illustrator 16.0.2, SVG Export Plug-In . SVG Version: 6.00 Build 0)  -->
<!DOCTYPE svg PUBLIC "-//W3C//DTD SVG 1.1//EN" "http://www.w3.org/Graphics/SVG/1.1/DTD/svg11.dtd">
<svg version="1.1" id="Layer_1" xmlns="http://www.w3.org/2000/svg" xmlns:xlink="http://www.w3.org/1999/xlink" x="0px" y="0px"
	 width="110px" height="37px" viewBox="0 0 110 37" enable-background="new 0 0 110 37" xml:space="preserve">
<path fill="#003B7B" d="M4.63,3.673h7.467c2.358,0,4.145,0.137,5.359,0.411c1.215,0.273,2.196,0.827,2.942,1.662
	c0.747,0.835,1.12,2.181,1.12,4.035c0,1.255-0.264,2.129-0.791,2.623c-0.528,0.495-1.567,0.875-3.12,1.14
	c1.73,0.292,2.903,0.776,3.52,1.453s0.925,1.713,0.925,3.111v1.989c0,1.451-0.223,2.525-0.667,3.225
	c-0.444,0.699-1.153,1.177-2.125,1.433c-0.972,0.257-2.963,0.385-5.974,0.385H4.63V3.673z M12.115,7.346v4.773
	c0.32-0.009,0.569-0.014,0.747-0.014c0.734,0,1.203-0.135,1.404-0.404s0.302-1.04,0.302-2.313c0-0.672-0.083-1.143-0.249-1.412
	c-0.167-0.27-0.382-0.44-0.649-0.511C13.403,7.394,12.885,7.354,12.115,7.346z M12.115,15.461v6.006
	c1.054-0.026,1.727-0.15,2.018-0.371c0.29-0.221,0.436-0.765,0.436-1.631v-2.002c0-0.92-0.13-1.477-0.391-1.671
	S13.229,15.487,12.115,15.461z"/>
<path fill="#007BFF" d="M32.221,3.673V25.14h-7.485V3.673H32.221z"/>
<path fill="#003B7B" d="M58.318,3.673V25.14h-6.542l-0.008-14.493L49.163,25.14h-4.64l-2.747-14.161L41.768,25.14h-6.542V3.673
	h9.685c0.288,1.291,0.583,2.812,0.888,4.563l1.063,5.461l1.72-10.024H58.318z"/>
<g>
	<g>
		<path fill="#007BFF" d="M66.393,23.221c0.597,0,1.076-0.135,1.436-0.404c0.361-0.269,0.541-0.628,0.541-1.078h3.045l0.035,0.054
			c0.03,0.976-0.442,1.793-1.42,2.451c-0.977,0.657-2.189,0.986-3.637,0.986c-1.854,0-3.283-0.455-4.287-1.366
			c-1.004-0.91-1.506-2.08-1.506-3.509v-0.268c0-1.423,0.5-2.593,1.5-3.51s2.426-1.375,4.281-1.375c1.532,0,2.768,0.339,3.706,1.018
			s1.393,1.572,1.362,2.679l-0.023,0.054h-3.057c0-0.5-0.178-0.915-0.529-1.245c-0.353-0.33-0.839-0.496-1.459-0.496
			c-0.889,0-1.516,0.268-1.88,0.803s-0.546,1.225-0.546,2.068v0.268c0,0.862,0.182,1.556,0.546,2.082S65.495,23.221,66.393,23.221z"
			/>
		<path fill="#007BFF" d="M72.84,20.122c0-1.44,0.518-2.621,1.551-3.541c1.035-0.92,2.467-1.38,4.299-1.38
			c1.839,0,3.279,0.459,4.322,1.376c1.041,0.917,1.563,2.099,1.563,3.545v0.188c0,1.453-0.52,2.636-1.558,3.55
			s-2.473,1.37-4.304,1.37c-1.839,0-3.277-0.456-4.316-1.37c-1.038-0.914-1.557-2.097-1.557-3.55V20.122L72.84,20.122z
			 M76.184,20.305c0,0.88,0.199,1.586,0.598,2.117c0.398,0.532,1.043,0.799,1.932,0.799c0.865,0,1.5-0.268,1.902-0.803
			s0.604-1.239,0.604-2.113v-0.188c0-0.855-0.203-1.554-0.609-2.095c-0.406-0.542-1.046-0.812-1.92-0.812
			c-0.865,0-1.499,0.271-1.902,0.815c-0.401,0.544-0.604,1.241-0.604,2.091V20.305L76.184,20.305z"/>
		<path fill="#007BFF" d="M93.366,22.381c0-0.285-0.179-0.532-0.534-0.741c-0.356-0.208-1.018-0.393-1.982-0.554
			c-1.471-0.231-2.58-0.575-3.328-1.03c-0.746-0.456-1.12-1.076-1.12-1.862c0-0.834,0.45-1.54,1.351-2.121
			c0.9-0.58,2.105-0.87,3.615-0.87c1.586,0,2.848,0.289,3.786,0.866s1.389,1.307,1.351,2.188L96.48,18.31h-3.24
			c0-0.387-0.159-0.702-0.478-0.946c-0.317-0.244-0.784-0.366-1.396-0.366c-0.545,0-0.972,0.103-1.282,0.309
			c-0.311,0.205-0.466,0.462-0.466,0.771c0,0.298,0.163,0.542,0.489,0.732c0.325,0.19,0.985,0.36,1.982,0.509
			c1.532,0.238,2.67,0.588,3.413,1.05c0.744,0.462,1.115,1.097,1.115,1.906c0,0.869-0.479,1.579-1.438,2.13
			c-0.957,0.551-2.222,0.826-3.793,0.826c-1.654,0-2.963-0.326-3.924-0.979c-0.962-0.651-1.42-1.395-1.374-2.228l0.022-0.054h3.069
			c0.022,0.518,0.241,0.893,0.655,1.125s0.953,0.349,1.621,0.349c0.62,0,1.093-0.096,1.418-0.286
			C93.203,22.968,93.366,22.708,93.366,22.381z"/>
		<path fill="#007BFF" d="M102.768,13.014v2.366h2.092v1.831h-2.092v4.92c0,0.375,0.1,0.643,0.299,0.804
			c0.199,0.16,0.468,0.241,0.805,0.241c0.176,0,0.328-0.008,0.454-0.022s0.274-0.04,0.442-0.076l0.287,1.884
			c-0.337,0.09-0.666,0.156-0.988,0.201s-0.67,0.066-1.046,0.066c-1.157,0-2.048-0.247-2.673-0.741
			c-0.624-0.493-0.936-1.276-0.936-2.349v-4.928h-1.816V15.38h1.816v-2.366H102.768z"/>
	</g>
</g>
<g>
	<path d="M9.444,32.169l0.008,0.014c0.01,0.324-0.181,0.597-0.574,0.815c-0.393,0.22-0.912,0.329-1.557,0.329
		c-0.656,0-1.19-0.138-1.603-0.415c-0.413-0.277-0.619-0.628-0.619-1.054v-0.615c0-0.425,0.207-0.776,0.619-1.055
		c0.413-0.277,0.947-0.417,1.603-0.417s1.178,0.104,1.565,0.313c0.388,0.208,0.576,0.483,0.565,0.827l-0.008,0.015H8.691
		c0-0.242-0.119-0.434-0.358-0.574C8.094,30.21,7.756,30.14,7.321,30.14c-0.438,0-0.787,0.105-1.048,0.315
		c-0.26,0.211-0.39,0.472-0.39,0.783v0.619c0,0.314,0.13,0.576,0.39,0.787c0.26,0.21,0.609,0.315,1.048,0.315
		c0.435,0,0.772-0.07,1.011-0.21c0.239-0.141,0.358-0.334,0.358-0.58L9.444,32.169L9.444,32.169z"/>
	<path d="M14.9,31.858c0,0.422-0.22,0.772-0.659,1.051c-0.439,0.279-1.01,0.418-1.71,0.418c-0.677,0-1.227-0.139-1.651-0.418
		c-0.423-0.278-0.635-0.629-0.635-1.051v-0.615c0-0.421,0.212-0.771,0.635-1.051c0.424-0.28,0.974-0.421,1.651-0.421
		c0.701,0,1.271,0.14,1.71,0.419c0.439,0.279,0.659,0.63,0.659,1.053V31.858z M14.115,31.238c0-0.316-0.143-0.576-0.43-0.778
		c-0.287-0.203-0.672-0.304-1.155-0.304c-0.457,0-0.821,0.101-1.093,0.304c-0.272,0.202-0.408,0.462-0.408,0.778v0.62
		c0,0.319,0.136,0.58,0.408,0.782c0.272,0.203,0.636,0.305,1.093,0.305c0.486,0,0.871-0.102,1.157-0.303
		c0.285-0.202,0.428-0.463,0.428-0.784V31.238L14.115,31.238z"/>
	<path d="M19.229,32.407c0-0.157-0.1-0.289-0.298-0.396c-0.2-0.105-0.553-0.195-1.06-0.268c-0.613-0.088-1.092-0.216-1.436-0.386
		c-0.344-0.169-0.516-0.383-0.516-0.64c0-0.271,0.185-0.495,0.556-0.676c0.37-0.181,0.85-0.271,1.439-0.271
		c0.634,0,1.14,0.104,1.515,0.312c0.376,0.207,0.557,0.447,0.543,0.721l-0.008,0.015h-0.749c0-0.202-0.112-0.366-0.336-0.491
		c-0.225-0.125-0.546-0.188-0.966-0.188c-0.39,0-0.69,0.053-0.898,0.157c-0.208,0.105-0.313,0.243-0.313,0.412
		c0,0.15,0.113,0.275,0.339,0.376s0.592,0.188,1.099,0.265c0.61,0.09,1.075,0.224,1.394,0.398c0.319,0.177,0.478,0.394,0.478,0.653
		c0,0.278-0.191,0.503-0.574,0.672s-0.881,0.254-1.498,0.254c-0.579,0-1.09-0.094-1.535-0.281c-0.444-0.188-0.66-0.438-0.647-0.751
		l0.008-0.015h0.749c0,0.222,0.136,0.391,0.41,0.506c0.273,0.115,0.612,0.173,1.015,0.173c0.396,0,0.709-0.05,0.94-0.148
		C19.113,32.712,19.229,32.577,19.229,32.407z"/>
	<path d="M25.083,30.189h-1.864v3.088h-0.785v-3.088h-1.859v-0.368h4.508V30.189z"/>
	<path d="M30.212,31.858c0,0.422-0.22,0.772-0.659,1.051c-0.439,0.279-1.01,0.418-1.71,0.418c-0.677,0-1.228-0.139-1.65-0.418
		c-0.424-0.278-0.636-0.629-0.636-1.051v-0.615c0-0.421,0.212-0.771,0.636-1.051c0.423-0.28,0.974-0.421,1.65-0.421
		c0.701,0,1.271,0.14,1.71,0.419s0.659,0.63,0.659,1.053V31.858z M29.428,31.238c0-0.316-0.143-0.576-0.43-0.778
		c-0.287-0.203-0.672-0.304-1.155-0.304c-0.457,0-0.821,0.101-1.093,0.304c-0.272,0.202-0.408,0.462-0.408,0.778v0.62
		c0,0.319,0.136,0.58,0.408,0.782c0.272,0.203,0.637,0.305,1.093,0.305c0.486,0,0.872-0.102,1.157-0.303
		c0.285-0.202,0.428-0.463,0.428-0.784V31.238L29.428,31.238z"/>
	<path d="M34.542,32.407c0-0.157-0.1-0.289-0.299-0.396c-0.199-0.105-0.552-0.195-1.06-0.268c-0.613-0.088-1.092-0.216-1.436-0.386
		c-0.344-0.169-0.516-0.383-0.516-0.64c0-0.271,0.185-0.495,0.555-0.676c0.371-0.181,0.851-0.271,1.44-0.271
		c0.634,0,1.139,0.104,1.515,0.312c0.375,0.207,0.557,0.447,0.543,0.721l-0.008,0.015h-0.749c0-0.202-0.112-0.366-0.336-0.491
		c-0.225-0.125-0.546-0.188-0.966-0.188c-0.39,0-0.69,0.053-0.898,0.157c-0.208,0.105-0.313,0.243-0.313,0.412
		c0,0.15,0.113,0.275,0.338,0.376c0.226,0.101,0.592,0.188,1.1,0.265c0.61,0.09,1.075,0.224,1.394,0.398
		c0.318,0.177,0.478,0.394,0.478,0.653c0,0.278-0.191,0.503-0.574,0.672s-0.881,0.254-1.498,0.254c-0.579,0-1.09-0.094-1.535-0.281
		c-0.444-0.188-0.66-0.438-0.647-0.751l0.008-0.015h0.749c0,0.222,0.136,0.391,0.41,0.506c0.273,0.115,0.611,0.173,1.015,0.173
		c0.396,0,0.709-0.05,0.939-0.148C34.426,32.712,34.542,32.577,34.542,32.407z"/>
	<path d="M40.268,31.577l1.513-1.756h0.896l-2.036,2.24v1.216h-0.78V32.03l-2.003-2.209h0.896L40.268,31.577z"/>
	<path d="M46.286,31.891v1.387h-0.785v-3.456h2.218c0.619,0,1.099,0.095,1.442,0.285c0.342,0.189,0.514,0.439,0.514,0.75
		c0,0.314-0.171,0.565-0.514,0.753c-0.343,0.188-0.823,0.281-1.442,0.281H46.286z M46.286,31.523h1.434
		c0.393,0,0.687-0.063,0.88-0.188c0.194-0.125,0.291-0.284,0.291-0.475c0-0.191-0.098-0.351-0.292-0.479
		c-0.196-0.128-0.488-0.192-0.878-0.192h-1.434L46.286,31.523L46.286,31.523z"/>
	<path d="M51.51,31.779v1.498h-0.784v-3.454h2.099c0.634,0,1.119,0.085,1.454,0.252c0.335,0.168,0.502,0.411,0.502,0.731
		c0,0.177-0.077,0.331-0.233,0.462c-0.154,0.132-0.381,0.236-0.678,0.313c0.318,0.063,0.547,0.162,0.686,0.3
		c0.141,0.139,0.209,0.311,0.209,0.515v0.325c0,0.107,0.021,0.204,0.061,0.289c0.039,0.086,0.108,0.155,0.207,0.209v0.057h-0.809
		c-0.104-0.054-0.17-0.133-0.199-0.237s-0.043-0.212-0.043-0.322V32.4c0-0.187-0.092-0.337-0.275-0.45
		c-0.184-0.114-0.429-0.171-0.737-0.171H51.51L51.51,31.779z M51.51,31.412h1.235c0.443,0,0.763-0.051,0.958-0.15
		c0.195-0.101,0.293-0.254,0.293-0.459c0-0.194-0.096-0.345-0.285-0.451s-0.485-0.16-0.886-0.16H51.51V31.412L51.51,31.412z"/>
	<path d="M59.571,31.675h-2.656v1.234h3.062v0.368h-3.846v-3.456h3.803v0.368h-3.019v1.117h2.656V31.675z"/>
	<path d="M64.055,32.407c0-0.157-0.099-0.289-0.299-0.396c-0.198-0.106-0.552-0.195-1.059-0.268
		c-0.613-0.088-1.092-0.216-1.436-0.386c-0.344-0.169-0.516-0.383-0.516-0.64c0-0.271,0.186-0.495,0.555-0.676
		c0.371-0.181,0.851-0.271,1.439-0.271c0.635,0,1.141,0.104,1.516,0.312c0.376,0.207,0.557,0.447,0.544,0.721l-0.009,0.015h-0.748
		c0-0.202-0.112-0.366-0.336-0.491c-0.225-0.125-0.547-0.188-0.967-0.188c-0.39,0-0.689,0.053-0.897,0.157
		c-0.208,0.105-0.313,0.243-0.313,0.412c0,0.15,0.113,0.275,0.34,0.376c0.225,0.101,0.592,0.188,1.099,0.265
		c0.61,0.09,1.075,0.224,1.394,0.398c0.319,0.177,0.479,0.394,0.479,0.653c0,0.278-0.191,0.503-0.574,0.672
		c-0.382,0.169-0.881,0.254-1.497,0.254c-0.579,0-1.091-0.094-1.535-0.281s-0.66-0.438-0.647-0.751l0.008-0.015h0.749
		c0,0.222,0.137,0.391,0.41,0.506s0.612,0.173,1.016,0.173c0.396,0,0.709-0.05,0.94-0.148
		C63.939,32.712,64.055,32.577,64.055,32.407z"/>
	<path d="M70.221,29.821v2.343c0,0.377-0.205,0.664-0.615,0.863c-0.41,0.2-0.946,0.3-1.607,0.3c-0.637,0-1.154-0.101-1.551-0.301
		c-0.397-0.199-0.596-0.487-0.596-0.862v-2.343h0.785v2.342c0,0.26,0.124,0.459,0.374,0.594c0.249,0.135,0.579,0.203,0.987,0.203
		c0.43,0,0.777-0.068,1.041-0.203c0.265-0.135,0.396-0.333,0.396-0.594v-2.342H70.221L70.221,29.821z"/>
	<path d="M72.287,31.891v1.387h-0.785v-3.456h2.219c0.619,0,1.1,0.095,1.441,0.285c0.343,0.189,0.514,0.439,0.514,0.75
		c0,0.314-0.171,0.565-0.514,0.753c-0.342,0.188-0.822,0.281-1.441,0.281H72.287z M72.287,31.523h1.434
		c0.393,0,0.686-0.063,0.88-0.188s0.291-0.284,0.291-0.475c0-0.191-0.098-0.351-0.293-0.479c-0.194-0.128-0.487-0.192-0.878-0.192
		h-1.434V31.523L72.287,31.523z"/>
	<path d="M80.965,29.821v2.343c0,0.377-0.205,0.664-0.615,0.863c-0.41,0.2-0.945,0.3-1.607,0.3c-0.637,0-1.154-0.101-1.551-0.301
		c-0.396-0.199-0.596-0.487-0.596-0.862v-2.343h0.785v2.342c0,0.26,0.125,0.459,0.375,0.594c0.248,0.135,0.578,0.203,0.987,0.203
		c0.43,0,0.776-0.068,1.041-0.203s0.396-0.333,0.396-0.594v-2.342H80.965L80.965,29.821z"/>
	<path d="M85.688,31.675h-2.656v1.234h3.063v0.368h-3.847v-3.456h3.804v0.368h-3.02v1.117h2.656V31.675z"/>
	<path d="M90.172,32.407c0-0.157-0.1-0.289-0.299-0.396s-0.553-0.195-1.06-0.268c-0.612-0.088-1.091-0.216-1.436-0.386
		c-0.344-0.169-0.516-0.383-0.516-0.64c0-0.271,0.186-0.495,0.556-0.676s0.85-0.271,1.439-0.271c0.635,0,1.14,0.104,1.516,0.312
		c0.375,0.207,0.557,0.447,0.543,0.721l-0.008,0.015H90.16c0-0.202-0.112-0.366-0.337-0.491c-0.224-0.125-0.546-0.188-0.966-0.188
		c-0.391,0-0.689,0.053-0.898,0.157c-0.208,0.105-0.313,0.243-0.313,0.412c0,0.15,0.113,0.275,0.339,0.376s0.592,0.188,1.099,0.265
		c0.611,0.09,1.076,0.224,1.395,0.398c0.318,0.177,0.479,0.394,0.479,0.653c0,0.278-0.191,0.503-0.574,0.672
		s-0.881,0.254-1.498,0.254c-0.578,0-1.09-0.094-1.535-0.281c-0.444-0.188-0.66-0.438-0.646-0.751l0.008-0.015h0.748
		c0,0.222,0.137,0.391,0.41,0.506s0.613,0.173,1.016,0.173c0.396,0,0.709-0.05,0.94-0.148S90.172,32.577,90.172,32.407z"/>
	<path d="M96.026,30.189h-1.864v3.088h-0.783v-3.088h-1.86v-0.368h4.508V30.189z"/>
	<path d="M101.156,31.858c0,0.422-0.22,0.772-0.659,1.051c-0.44,0.278-1.01,0.418-1.711,0.418c-0.677,0-1.228-0.139-1.65-0.418
		c-0.423-0.278-0.636-0.629-0.636-1.051v-0.615c0-0.421,0.213-0.771,0.636-1.051c0.423-0.28,0.974-0.421,1.65-0.421
		c0.701,0,1.271,0.14,1.711,0.419c0.439,0.279,0.659,0.63,0.659,1.053V31.858z M100.371,31.238c0-0.316-0.143-0.576-0.43-0.778
		c-0.287-0.203-0.672-0.304-1.155-0.304c-0.456,0-0.821,0.101-1.093,0.304c-0.272,0.202-0.408,0.462-0.408,0.778v0.62
		c0,0.319,0.136,0.58,0.408,0.782c0.271,0.203,0.637,0.305,1.093,0.305c0.485,0,0.872-0.102,1.157-0.303
		c0.285-0.202,0.428-0.463,0.428-0.784V31.238L100.371,31.238z"/>
	<path d="M105.484,32.407c0-0.157-0.1-0.289-0.299-0.396s-0.553-0.195-1.059-0.268c-0.613-0.088-1.092-0.216-1.436-0.386
		c-0.345-0.169-0.516-0.383-0.516-0.64c0-0.271,0.185-0.495,0.555-0.676c0.371-0.181,0.85-0.271,1.439-0.271
		c0.635,0,1.141,0.104,1.516,0.312c0.375,0.207,0.557,0.447,0.543,0.721l-0.008,0.015h-0.748c0-0.202-0.112-0.366-0.337-0.491
		c-0.224-0.125-0.546-0.188-0.966-0.188c-0.391,0-0.689,0.053-0.898,0.157c-0.208,0.105-0.313,0.243-0.313,0.412
		c0,0.15,0.113,0.275,0.339,0.376s0.593,0.188,1.1,0.265c0.61,0.09,1.075,0.224,1.394,0.398c0.318,0.177,0.479,0.394,0.479,0.653
		c0,0.278-0.191,0.503-0.574,0.672c-0.382,0.169-0.881,0.254-1.498,0.254c-0.578,0-1.09-0.094-1.535-0.281
		c-0.444-0.188-0.66-0.438-0.646-0.751l0.008-0.015h0.748c0,0.222,0.137,0.391,0.41,0.506s0.613,0.173,1.016,0.173
		c0.396,0,0.709-0.05,0.94-0.148S105.484,32.577,105.484,32.407z"/>
</g>
</svg>
