<?xml version="1.0" encoding="utf-8"?>
<!-- Generator: Adobe Illustrator 16.0.2, SVG Export Plug-In . SVG Version: 6.00 Build 0)  -->
<!DOCTYPE svg PUBLIC "-//W3C//DTD SVG 1.1//EN" "http://www.w3.org/Graphics/SVG/1.1/DTD/svg11.dtd">
<svg version="1.1" id="Layer_1" xmlns="http://www.w3.org/2000/svg" xmlns:xlink="http://www.w3.org/1999/xlink" x="0px" y="0px"
	 width="110px" height="37px" viewBox="0 0 110 37" enable-background="new 0 0 110 37" xml:space="preserve">
<rect x="89.585" y="11.585" transform="matrix(0.0097 1 -1 0.0097 117.3815 -89.44)" fill-rule="evenodd" clip-rule="evenodd" fill="#08387F" width="28.522" height="5.914"/>
<rect x="80.606" y="11.585" transform="matrix(0.0097 1 -1 0.0097 108.489 -80.4609)" fill-rule="evenodd" clip-rule="evenodd" fill="#08387F" width="28.522" height="5.914"/>
<rect x="72.361" y="11.571" transform="matrix(0.0097 1 -1 0.0097 100.3252 -72.2445)" fill-rule="evenodd" clip-rule="evenodd" fill="#08387F" width="28.55" height="5.914"/>
<rect x="63.664" y="11.571" transform="matrix(0.0097 1 -1 0.0097 91.6974 -63.5336)" fill-rule="evenodd" clip-rule="evenodd" fill="#08387F" width="28.522" height="5.915"/>
<rect x="55.419" y="11.557" transform="matrix(0.0097 1 -1 0.0097 83.5334 -55.3172)" fill-rule="evenodd" clip-rule="evenodd" fill="#08387F" width="28.55" height="5.915"/>
<rect x="47.779" y="11.399" transform="matrix(0.0097 1 -1 0.0097 75.7949 -47.8195)" fill-rule="evenodd" clip-rule="evenodd" fill="#08387F" width="28.522" height="5.915"/>
<rect x="39.535" y="11.385" transform="matrix(0.0097 1 -1 0.0097 67.6301 -39.6036)" fill-rule="evenodd" clip-rule="evenodd" fill="#08387F" width="28.55" height="5.915"/>
<rect x="31.213" y="11.478" transform="matrix(0.0097 1 -1 0.0097 59.4681 -31.1766)" fill-rule="evenodd" clip-rule="evenodd" fill="#08387F" width="28.522" height="5.915"/>
<rect x="22.969" y="11.464" transform="matrix(0.0097 1 -1 0.0097 51.3039 -22.9601)" fill-rule="evenodd" clip-rule="evenodd" fill="#08387F" width="28.55" height="5.915"/>
<rect x="15.271" y="11.464" transform="matrix(0.0097 1 -1 0.0097 43.667 -15.2492)" fill-rule="evenodd" clip-rule="evenodd" fill="#08387F" width="28.522" height="5.915"/>
<rect x="7.027" y="11.45" transform="matrix(0.0097 1 -1 0.0097 35.5027 -7.0328)" fill-rule="evenodd" clip-rule="evenodd" fill="#08387F" width="28.55" height="5.915"/>
<rect x="-0.613" y="11.293" transform="matrix(0.0097 1 -1 0.0097 27.7648 0.4649)" fill-rule="evenodd" clip-rule="evenodd" fill="#08387F" width="28.522" height="5.915"/>
<rect x="-9.858" y="11.279" transform="matrix(0.0097 1 -1 0.0097 18.6101 9.6812)" fill-rule="evenodd" clip-rule="evenodd" fill="#08387F" width="28.55" height="5.915"/>
<path fill="#FFFFFF" d="M4.63,3.673h7.467c2.358,0,4.145,0.137,5.359,0.411c1.215,0.273,2.196,0.827,2.942,1.662
	c0.747,0.835,1.12,2.181,1.12,4.035c0,1.255-0.264,2.129-0.791,2.623c-0.528,0.495-1.567,0.875-3.12,1.14
	c1.73,0.292,2.903,0.776,3.52,1.453c0.617,0.677,0.925,1.713,0.925,3.111v1.99c0,1.45-0.223,2.524-0.667,3.225
	c-0.444,0.699-1.153,1.178-2.125,1.434c-0.972,0.258-2.963,0.387-5.974,0.387H4.63V3.673z M12.115,7.346v4.773
	c0.32-0.009,0.569-0.014,0.747-0.014c0.734,0,1.203-0.135,1.404-0.404c0.201-0.269,0.302-1.04,0.302-2.313
	c0-0.672-0.083-1.143-0.249-1.412c-0.167-0.27-0.382-0.44-0.649-0.511C13.403,7.394,12.885,7.354,12.115,7.346z M12.115,15.461
	v6.006c1.054-0.025,1.727-0.15,2.018-0.371c0.29-0.221,0.436-0.765,0.436-1.631v-2.002c0-0.92-0.13-1.477-0.391-1.671
	C13.917,15.598,13.229,15.487,12.115,15.461z"/>
<path fill="#FFFFFF" d="M32.221,3.673v21.468h-7.485V3.673H32.221z"/>
<path fill="#FFFFFF" d="M58.318,3.673v21.468h-6.542l-0.008-14.494l-2.605,14.494h-4.64l-2.747-14.162l-0.008,14.162h-6.542V3.673
	h9.685c0.288,1.291,0.583,2.812,0.888,4.563l1.063,5.461l1.72-10.024H58.318z"/>
<g>
	<g>
		<path fill="#FFFFFF" d="M66.393,23.221c0.599,0,1.076-0.135,1.438-0.404c0.359-0.269,0.541-0.627,0.541-1.078h3.045l0.035,0.056
			c0.029,0.978-0.442,1.793-1.422,2.451c-0.977,0.655-2.188,0.985-3.637,0.985c-1.854,0-3.283-0.455-4.287-1.367
			c-1.004-0.908-1.506-2.078-1.506-3.508v-0.269c0-1.423,0.5-2.593,1.5-3.51s2.426-1.375,4.281-1.375
			c1.532,0,2.768,0.339,3.706,1.018c0.938,0.679,1.394,1.572,1.362,2.679l-0.023,0.054h-3.057c0-0.5-0.178-0.915-0.529-1.245
			c-0.354-0.33-0.839-0.496-1.459-0.496c-0.889,0-1.516,0.268-1.88,0.803c-0.364,0.535-0.546,1.225-0.546,2.068v0.269
			c0,0.861,0.182,1.556,0.546,2.082C64.865,22.959,65.495,23.221,66.393,23.221z"/>
		<path fill="#FFFFFF" d="M72.84,20.122c0-1.44,0.518-2.621,1.551-3.541c1.035-0.92,2.467-1.38,4.299-1.38
			c1.84,0,3.279,0.459,4.322,1.376c1.041,0.917,1.563,2.099,1.563,3.545v0.188c0,1.453-0.521,2.635-1.558,3.549
			c-1.039,0.914-2.475,1.371-4.306,1.371c-1.839,0-3.276-0.457-4.315-1.371c-1.037-0.914-1.558-2.096-1.558-3.549L72.84,20.122
			L72.84,20.122z M76.184,20.305c0,0.881,0.199,1.586,0.6,2.117c0.396,0.532,1.043,0.799,1.932,0.799c0.865,0,1.5-0.268,1.902-0.803
			c0.4-0.535,0.604-1.238,0.604-2.113v-0.188c0-0.855-0.203-1.554-0.609-2.095c-0.405-0.542-1.047-0.812-1.92-0.812
			c-0.864,0-1.5,0.271-1.901,0.815c-0.399,0.544-0.604,1.241-0.604,2.091v0.188H76.184L76.184,20.305z"/>
		<path fill="#FFFFFF" d="M93.366,22.381c0-0.285-0.179-0.531-0.534-0.74s-1.018-0.394-1.982-0.555
			c-1.471-0.23-2.58-0.574-3.328-1.029c-0.746-0.457-1.119-1.077-1.119-1.863c0-0.834,0.449-1.54,1.352-2.121
			c0.898-0.58,2.104-0.87,3.615-0.87c1.586,0,2.848,0.289,3.785,0.866c0.938,0.577,1.39,1.307,1.352,2.188L96.48,18.31h-3.24
			c0-0.387-0.159-0.702-0.479-0.946c-0.316-0.244-0.783-0.366-1.396-0.366c-0.547,0-0.973,0.103-1.282,0.309
			c-0.312,0.205-0.466,0.462-0.466,0.771c0,0.298,0.162,0.542,0.488,0.732c0.324,0.19,0.984,0.36,1.981,0.508
			c1.532,0.238,2.67,0.588,3.413,1.051c0.744,0.462,1.115,1.097,1.115,1.906c0,0.869-0.479,1.578-1.438,2.129
			c-0.957,0.552-2.224,0.826-3.794,0.826c-1.653,0-2.964-0.326-3.925-0.979c-0.962-0.649-1.42-1.396-1.374-2.229l0.021-0.053h3.07
			c0.021,0.518,0.24,0.893,0.654,1.125c0.414,0.231,0.953,0.348,1.621,0.348c0.619,0,1.093-0.096,1.418-0.284
			C93.203,22.969,93.366,22.708,93.366,22.381z"/>
		<path fill="#FFFFFF" d="M102.768,13.014v2.366h2.092v1.831h-2.092v4.92c0,0.375,0.102,0.643,0.299,0.805
			c0.199,0.16,0.47,0.24,0.807,0.24c0.176,0,0.328-0.008,0.454-0.021c0.126-0.012,0.272-0.041,0.44-0.075l0.287,1.884
			c-0.336,0.092-0.666,0.156-0.988,0.201c-0.32,0.045-0.67,0.064-1.045,0.064c-1.158,0-2.049-0.246-2.674-0.74
			c-0.623-0.492-0.936-1.275-0.936-2.35v-4.928h-1.816V15.38h1.816v-2.366H102.768z"/>
	</g>
</g>
<g>
	<path fill="#FFFFFF" d="M9.436,33.504l0.009,0.021c0.009,0.496-0.181,0.914-0.574,1.25c-0.392,0.338-0.911,0.504-1.554,0.504
		c-0.655,0-1.188-0.209-1.6-0.635c-0.412-0.428-0.618-0.965-0.618-1.619v-0.943c0-0.65,0.207-1.189,0.618-1.618
		c0.412-0.425,0.945-0.64,1.6-0.64c0.655,0,1.176,0.158,1.563,0.48c0.387,0.318,0.575,0.738,0.564,1.268l-0.008,0.023h-0.75
		c0-0.371-0.119-0.666-0.357-0.881c-0.238-0.218-0.576-0.324-1.01-0.324c-0.438,0-0.785,0.16-1.046,0.482
		c-0.259,0.322-0.39,0.727-0.39,1.201v0.949c0,0.481,0.13,0.886,0.39,1.209c0.26,0.32,0.608,0.482,1.046,0.482
		c0.434,0,0.771-0.107,1.009-0.322c0.239-0.218,0.357-0.513,0.357-0.891h0.751V33.504z"/>
	<path fill="#FFFFFF" d="M14.883,33.025c0,0.646-0.22,1.186-0.658,1.613s-1.008,0.641-1.708,0.641c-0.676,0-1.224-0.213-1.648-0.641
		c-0.422-0.428-0.634-0.967-0.634-1.613v-0.943c0-0.645,0.212-1.182,0.634-1.614c0.424-0.427,0.972-0.644,1.648-0.644
		c0.7,0,1.269,0.215,1.708,0.642c0.438,0.429,0.658,0.97,0.658,1.616V33.025z M14.099,32.075c0-0.485-0.143-0.884-0.429-1.194
		c-0.287-0.311-0.671-0.465-1.154-0.465c-0.456,0-0.819,0.154-1.09,0.465s-0.408,0.709-0.408,1.194v0.95
		c0,0.492,0.137,0.892,0.408,1.201c0.271,0.313,0.634,0.469,1.09,0.469c0.485,0,0.87-0.156,1.155-0.465
		c0.285-0.313,0.427-0.711,0.427-1.205L14.099,32.075L14.099,32.075z"/>
	<path fill="#FFFFFF" d="M19.204,33.868c0-0.24-0.1-0.442-0.297-0.604c-0.2-0.164-0.553-0.301-1.059-0.412
		c-0.612-0.138-1.091-0.332-1.434-0.593c-0.344-0.262-0.515-0.589-0.515-0.983c0-0.414,0.185-0.758,0.555-1.037
		c0.37-0.278,0.849-0.416,1.437-0.416c0.633,0,1.138,0.16,1.513,0.48c0.375,0.316,0.556,0.686,0.542,1.104l-0.008,0.024H19.19
		c0-0.312-0.112-0.563-0.335-0.754c-0.225-0.191-0.545-0.289-0.964-0.289c-0.389,0-0.688,0.078-0.896,0.241
		c-0.208,0.159-0.312,0.371-0.312,0.632c0,0.229,0.113,0.42,0.338,0.576c0.226,0.155,0.591,0.287,1.098,0.407
		c0.608,0.138,1.072,0.342,1.391,0.61c0.318,0.271,0.478,0.604,0.478,1.002c0,0.427-0.191,0.771-0.574,1.031
		c-0.382,0.258-0.879,0.389-1.496,0.389c-0.578,0-1.087-0.144-1.532-0.432c-0.443-0.287-0.659-0.671-0.646-1.152l0.008-0.021h0.749
		c0,0.342,0.135,0.6,0.408,0.777c0.274,0.176,0.611,0.264,1.013,0.264c0.396,0,0.708-0.074,0.938-0.227
		C19.088,34.337,19.204,34.13,19.204,33.868z"/>
	<path fill="#FFFFFF" d="M25.048,30.466h-1.861v4.739h-0.784v-4.739h-1.855V29.9h4.5V30.466z"/>
	<path fill="#FFFFFF" d="M30.168,33.025c0,0.646-0.219,1.186-0.658,1.613c-0.438,0.428-1.008,0.641-1.708,0.641
		c-0.675,0-1.225-0.213-1.647-0.641c-0.423-0.428-0.634-0.967-0.634-1.613v-0.943c0-0.645,0.211-1.182,0.634-1.614
		c0.423-0.427,0.973-0.644,1.647-0.644c0.7,0,1.27,0.215,1.708,0.642c0.438,0.429,0.658,0.97,0.658,1.616V33.025z M29.386,32.075
		c0-0.485-0.143-0.884-0.43-1.194s-0.67-0.465-1.153-0.465c-0.456,0-0.819,0.154-1.091,0.465s-0.407,0.709-0.407,1.194v0.95
		c0,0.492,0.136,0.892,0.407,1.201c0.271,0.313,0.637,0.469,1.091,0.469c0.486,0,0.871-0.156,1.156-0.465
		c0.285-0.313,0.427-0.711,0.427-1.205V32.075L29.386,32.075z"/>
	<path fill="#FFFFFF" d="M34.49,33.868c0-0.24-0.1-0.442-0.298-0.604c-0.199-0.164-0.551-0.301-1.059-0.412
		c-0.612-0.138-1.09-0.332-1.433-0.593c-0.344-0.262-0.515-0.589-0.515-0.983c0-0.414,0.185-0.758,0.554-1.037
		c0.371-0.278,0.85-0.416,1.438-0.416c0.633,0,1.137,0.16,1.513,0.48c0.375,0.316,0.555,0.686,0.542,1.104l-0.008,0.024h-0.749
		c0-0.312-0.111-0.563-0.335-0.754c-0.225-0.191-0.545-0.289-0.964-0.289c-0.39,0-0.688,0.078-0.896,0.241
		c-0.208,0.159-0.312,0.371-0.312,0.632c0,0.229,0.112,0.42,0.336,0.576c0.226,0.155,0.591,0.287,1.098,0.407
		c0.609,0.138,1.073,0.342,1.392,0.61c0.317,0.271,0.478,0.604,0.478,1.002c0,0.427-0.191,0.771-0.573,1.031
		c-0.382,0.258-0.879,0.389-1.496,0.389c-0.578,0-1.088-0.144-1.533-0.432c-0.442-0.287-0.658-0.671-0.645-1.152l0.008-0.021h0.748
		c0,0.342,0.135,0.6,0.409,0.777c0.272,0.176,0.61,0.264,1.013,0.264c0.396,0,0.708-0.074,0.938-0.227
		C34.375,34.337,34.49,34.13,34.49,33.868z"/>
	<path fill="#FFFFFF" d="M40.207,32.598l1.51-2.697h0.895l-2.033,3.438v1.867H39.8V33.29l-1.999-3.392h0.895L40.207,32.598z"/>
	<path fill="#FFFFFF" d="M46.214,33.076v2.129H45.43v-5.303h2.215c0.618,0,1.097,0.146,1.439,0.438
		c0.341,0.291,0.513,0.674,0.513,1.151c0,0.481-0.17,0.866-0.513,1.155c-0.342,0.287-0.821,0.43-1.439,0.43H46.214z M46.214,32.514
		h1.432c0.392,0,0.687-0.098,0.878-0.289c0.193-0.193,0.291-0.437,0.291-0.729c0-0.292-0.099-0.538-0.292-0.733
		c-0.197-0.197-0.488-0.295-0.877-0.295h-1.432V32.514L46.214,32.514z"/>
	<path fill="#FFFFFF" d="M51.428,32.906v2.299h-0.782v-5.303h2.095c0.633,0,1.117,0.133,1.452,0.389
		c0.333,0.258,0.501,0.631,0.501,1.122c0,0.271-0.077,0.507-0.233,0.708c-0.154,0.203-0.38,0.361-0.677,0.48
		c0.318,0.096,0.547,0.248,0.686,0.459c0.141,0.213,0.208,0.477,0.208,0.791v0.498c0,0.166,0.021,0.313,0.061,0.443
		c0.04,0.132,0.108,0.238,0.208,0.32v0.088h-0.808c-0.104-0.081-0.17-0.203-0.199-0.363c-0.029-0.158-0.043-0.324-0.043-0.494
		v-0.484c0-0.289-0.092-0.52-0.274-0.69c-0.184-0.177-0.429-0.263-0.736-0.263H51.428L51.428,32.906z M51.428,32.342h1.234
		c0.442,0,0.762-0.078,0.956-0.229c0.195-0.155,0.292-0.391,0.292-0.705c0-0.297-0.096-0.529-0.285-0.691
		c-0.188-0.162-0.485-0.248-0.885-0.248h-1.313L51.428,32.342L51.428,32.342z"/>
	<path fill="#FFFFFF" d="M59.475,32.745h-2.649v1.896h3.056v0.564h-3.839v-5.307h3.797v0.566h-3.014v1.715h2.649V32.745z"/>
	<path fill="#FFFFFF" d="M63.952,33.868c0-0.24-0.099-0.442-0.3-0.604c-0.196-0.166-0.551-0.301-1.057-0.412
		c-0.611-0.138-1.091-0.332-1.433-0.593c-0.345-0.262-0.517-0.589-0.517-0.983c0-0.414,0.188-0.758,0.554-1.037
		c0.37-0.278,0.85-0.416,1.437-0.416c0.635,0,1.141,0.16,1.514,0.48c0.377,0.316,0.559,0.686,0.543,1.104l-0.008,0.024h-0.748
		c0-0.312-0.111-0.563-0.334-0.754c-0.226-0.191-0.545-0.289-0.967-0.289c-0.388,0-0.688,0.078-0.896,0.241
		c-0.207,0.159-0.312,0.371-0.312,0.632c0,0.229,0.112,0.42,0.338,0.576c0.226,0.155,0.592,0.287,1.098,0.407
		c0.609,0.138,1.074,0.342,1.392,0.61c0.319,0.271,0.479,0.604,0.479,1.002c0,0.427-0.19,0.771-0.571,1.031
		c-0.382,0.258-0.881,0.389-1.497,0.389c-0.576,0-1.087-0.144-1.531-0.432c-0.443-0.287-0.658-0.671-0.646-1.152l0.008-0.021h0.749
		c0,0.342,0.138,0.6,0.407,0.777c0.273,0.176,0.613,0.264,1.017,0.264c0.396,0,0.708-0.074,0.938-0.227
		C63.836,34.337,63.952,34.13,63.952,33.868z"/>
	<path fill="#FFFFFF" d="M70.105,29.898v3.598c0,0.578-0.205,1.02-0.613,1.324c-0.409,0.306-0.942,0.459-1.602,0.459
		c-0.639,0-1.152-0.152-1.551-0.461c-0.396-0.305-0.595-0.748-0.595-1.322v-3.598h0.784v3.596c0,0.398,0.125,0.706,0.373,0.912
		c0.248,0.207,0.578,0.312,0.986,0.312c0.428,0,0.774-0.104,1.039-0.312c0.264-0.206,0.395-0.512,0.395-0.912v-3.596H70.105
		L70.105,29.898z"/>
	<path fill="#FFFFFF" d="M72.17,33.076v2.129h-0.783v-5.303h2.215c0.617,0,1.099,0.146,1.438,0.438
		c0.342,0.291,0.513,0.674,0.513,1.151c0,0.481-0.171,0.866-0.513,1.155c-0.341,0.287-0.821,0.43-1.438,0.43H72.17z M72.17,32.514
		h1.432c0.393,0,0.686-0.098,0.879-0.289c0.192-0.193,0.291-0.437,0.291-0.729c0-0.292-0.1-0.538-0.293-0.733
		c-0.194-0.197-0.487-0.295-0.877-0.295H72.17V32.514L72.17,32.514z"/>
	<path fill="#FFFFFF" d="M80.832,29.898v3.598c0,0.578-0.204,1.02-0.613,1.324c-0.41,0.307-0.943,0.459-1.604,0.459
		c-0.637,0-1.152-0.152-1.549-0.461c-0.396-0.305-0.596-0.748-0.596-1.322v-3.598h0.783v3.596c0,0.398,0.126,0.706,0.374,0.912
		c0.249,0.207,0.578,0.312,0.985,0.312c0.43,0,0.777-0.104,1.039-0.312c0.266-0.206,0.396-0.512,0.396-0.912v-3.596H80.832
		L80.832,29.898z"/>
	<path fill="#FFFFFF" d="M85.547,32.745h-2.65v1.896h3.06v0.564h-3.843v-5.307h3.799v0.566h-3.016v1.715h2.65V32.745z"/>
	<path fill="#FFFFFF" d="M90.021,33.868c0-0.24-0.098-0.442-0.297-0.604c-0.199-0.166-0.552-0.301-1.06-0.412
		c-0.61-0.138-1.088-0.332-1.433-0.593c-0.344-0.262-0.517-0.589-0.517-0.983c0-0.414,0.187-0.758,0.556-1.037
		c0.369-0.278,0.85-0.416,1.438-0.416c0.635,0,1.139,0.16,1.514,0.48c0.373,0.316,0.557,0.686,0.543,1.104l-0.01,0.024h-0.744
		c0-0.312-0.113-0.563-0.338-0.754c-0.223-0.191-0.545-0.289-0.964-0.289c-0.392,0-0.688,0.078-0.897,0.241
		c-0.207,0.159-0.312,0.371-0.312,0.632c0,0.229,0.112,0.42,0.338,0.576c0.226,0.155,0.593,0.287,1.099,0.407
		c0.609,0.138,1.074,0.342,1.393,0.61c0.316,0.271,0.479,0.604,0.479,1.002c0,0.427-0.189,0.771-0.574,1.031
		c-0.381,0.258-0.879,0.389-1.493,0.389c-0.577,0-1.089-0.144-1.533-0.432c-0.442-0.287-0.658-0.671-0.646-1.152l0.008-0.021h0.748
		c0,0.342,0.137,0.6,0.408,0.777c0.273,0.176,0.612,0.264,1.015,0.264c0.396,0,0.706-0.074,0.938-0.227
		C89.91,34.337,90.021,34.13,90.021,33.868z"/>
	<path fill="#FFFFFF" d="M95.866,30.466h-1.859v4.739h-0.782v-4.739H91.37V29.9h4.499v0.565H95.866z"/>
	<path fill="#FFFFFF" d="M100.988,33.025c0,0.646-0.221,1.186-0.657,1.613c-0.44,0.428-1.011,0.641-1.709,0.641
		c-0.675,0-1.226-0.213-1.646-0.641c-0.424-0.428-0.637-0.967-0.637-1.613v-0.943c0-0.645,0.213-1.182,0.637-1.614
		c0.42-0.427,0.971-0.644,1.646-0.644c0.698,0,1.269,0.215,1.709,0.642c0.437,0.429,0.657,0.97,0.657,1.616V33.025z M100.204,32.075
		c0-0.485-0.142-0.884-0.429-1.194s-0.672-0.465-1.153-0.465c-0.454,0-0.819,0.154-1.09,0.465c-0.273,0.311-0.408,0.709-0.408,1.194
		v0.95c0,0.492,0.135,0.892,0.408,1.201c0.269,0.313,0.636,0.469,1.09,0.469c0.485,0,0.871-0.156,1.155-0.465
		c0.285-0.313,0.427-0.711,0.427-1.205V32.075L100.204,32.075z"/>
	<path fill="#FFFFFF" d="M105.311,33.868c0-0.24-0.102-0.442-0.299-0.604c-0.199-0.166-0.554-0.301-1.059-0.412
		c-0.611-0.138-1.09-0.332-1.436-0.593c-0.343-0.262-0.515-0.589-0.515-0.983c0-0.414,0.187-0.758,0.554-1.037
		c0.371-0.278,0.851-0.416,1.438-0.416c0.635,0,1.139,0.16,1.514,0.48c0.374,0.316,0.557,0.686,0.542,1.104l-0.007,0.024h-0.747
		c0-0.312-0.112-0.563-0.337-0.754c-0.223-0.191-0.545-0.289-0.965-0.289c-0.389,0-0.688,0.078-0.896,0.241
		c-0.205,0.159-0.312,0.371-0.312,0.632c0,0.229,0.112,0.42,0.339,0.576c0.225,0.155,0.591,0.287,1.1,0.407
		c0.607,0.138,1.071,0.342,1.391,0.61c0.316,0.271,0.479,0.604,0.479,1.002c0,0.427-0.189,0.771-0.572,1.031
		c-0.383,0.258-0.879,0.389-1.496,0.389c-0.576,0-1.088-0.144-1.532-0.432c-0.443-0.287-0.659-0.671-0.646-1.152l0.008-0.021h0.746
		c0,0.342,0.139,0.6,0.41,0.777c0.272,0.176,0.611,0.264,1.014,0.264c0.396,0,0.709-0.074,0.939-0.227
		C105.193,34.337,105.311,34.13,105.311,33.868z"/>
</g>
</svg>
