<?xml version="1.0" encoding="utf-8"?>
<!-- Generator: Adobe Illustrator 16.0.2, SVG Export Plug-In . SVG Version: 6.00 Build 0)  -->
<!DOCTYPE svg PUBLIC "-//W3C//DTD SVG 1.1//EN" "http://www.w3.org/Graphics/SVG/1.1/DTD/svg11.dtd">
<svg version="1.1" id="Layer_1" xmlns="http://www.w3.org/2000/svg" xmlns:xlink="http://www.w3.org/1999/xlink" x="0px" y="0px"
	 width="500px" height="200px" viewBox="0 0 500 200" enable-background="new 0 0 500 200" xml:space="preserve">
<path fill="#242A3A" d="M41.264,38.677h30.632c9.675,0,17.005,0.562,21.988,1.686c4.985,1.123,9.009,3.396,12.071,6.821
	c3.063,3.426,4.594,8.943,4.594,16.552c0,5.147-1.082,8.734-3.246,10.763c-2.164,2.031-6.429,3.589-12.799,4.675
	c7.098,1.198,11.911,3.185,14.439,5.96c2.528,2.776,3.793,7.029,3.793,12.766v8.16c0,5.953-0.912,10.361-2.734,13.227
	c-1.824,2.869-4.73,4.826-8.716,5.879c-3.988,1.052-12.156,1.578-24.505,1.578H41.264V38.677z M71.97,53.744v19.583
	c1.312-0.035,2.333-0.055,3.063-0.055c3.014,0,4.934-0.553,5.761-1.659c0.827-1.107,1.241-4.269,1.241-9.492
	c0-2.756-0.342-4.688-1.021-5.793c-0.682-1.106-1.567-1.805-2.662-2.094C77.257,53.943,75.129,53.782,71.97,53.744z M71.97,87.036
	v24.64c4.326-0.109,7.085-0.615,8.278-1.523c1.19-0.906,1.787-3.137,1.787-6.69v-8.215c0-3.771-0.536-6.056-1.605-6.854
	C79.359,87.597,76.54,87.144,71.97,87.036z"/>
<path fill="#006FE6" d="M154.456,38.677v88.066H123.75V38.677H154.456z"/>
<path fill="#606A87" d="M261.519,38.677v88.066h-26.839l-0.035-59.455l-10.685,59.455h-19.035l-11.268-58.094l-0.037,58.094H166.78
	V38.677h39.73c1.179,5.295,2.394,11.536,3.644,18.723l4.362,22.4l7.056-41.123H261.519z"/>
<g>
	<path fill="#006FE6" d="M294.639,118.869c2.451,0,4.415-0.552,5.894-1.656c1.477-1.104,2.216-2.579,2.216-4.425h12.495l0.141,0.221
		c0.126,4.005-1.814,7.357-5.822,10.056s-8.982,4.048-14.923,4.048c-7.607,0-13.47-1.868-17.588-5.605
		c-4.118-3.736-6.177-8.535-6.177-14.396v-1.099c0-5.837,2.052-10.636,6.153-14.397c4.103-3.761,9.956-5.642,17.563-5.642
		c6.287,0,11.355,1.393,15.206,4.177s5.713,6.447,5.587,10.99l-0.094,0.22h-12.542c0-2.052-0.724-3.755-2.169-5.11
		c-1.446-1.355-3.442-2.033-5.988-2.033c-3.646,0-6.216,1.098-7.709,3.292s-2.239,5.023-2.239,8.485v1.099
		c0,3.536,0.746,6.383,2.239,8.541S290.961,118.869,294.639,118.869z"/>
	<path fill="#006FE6" d="M321.09,106.158c0-5.91,2.122-10.752,6.365-14.525s10.121-5.66,17.634-5.66
		c7.544,0,13.453,1.881,17.729,5.642c4.274,3.762,6.413,8.609,6.413,14.544v0.769c0,5.96-2.13,10.813-6.39,14.563
		s-10.145,5.623-17.657,5.623c-7.544,0-13.446-1.874-17.705-5.623c-4.26-3.749-6.389-8.603-6.389-14.563V106.158z M334.811,106.908
		c0,3.609,0.817,6.505,2.452,8.688c1.634,2.183,4.274,3.273,7.921,3.273c3.552,0,6.153-1.097,7.804-3.291
		c1.649-2.195,2.475-5.085,2.475-8.67v-0.768c0-3.512-0.833-6.377-2.499-8.596c-1.666-2.22-4.29-3.329-7.874-3.329
		c-3.552,0-6.152,1.116-7.803,3.347c-1.65,2.231-2.476,5.091-2.476,8.578V106.908z"/>
	<path fill="#006FE6" d="M405.299,115.426c0-1.172-0.73-2.186-2.192-3.04c-1.461-0.854-4.173-1.612-8.133-2.271
		c-6.035-0.952-10.586-2.363-13.65-4.231s-4.597-4.414-4.597-7.638c0-3.419,1.846-6.319,5.54-8.7
		c3.693-2.381,8.636-3.572,14.828-3.572c6.507,0,11.686,1.186,15.536,3.554c3.851,2.369,5.697,5.361,5.54,8.976l-0.094,0.22H404.78
		c0-1.588-0.652-2.882-1.956-3.884c-1.305-1.001-3.215-1.502-5.729-1.502c-2.231,0-3.983,0.422-5.257,1.265
		c-1.273,0.842-1.909,1.898-1.909,3.168c0,1.222,0.667,2.223,2.004,3.004c1.335,0.782,4.046,1.479,8.133,2.089
		c6.286,0.977,10.954,2.412,14.004,4.304c3.049,1.894,4.573,4.5,4.573,7.821c0,3.566-1.965,6.479-5.894,8.737
		c-3.93,2.259-9.116,3.389-15.56,3.389c-6.79,0-12.157-1.337-16.102-4.012c-3.945-2.674-5.823-5.721-5.635-9.14l0.095-0.22h12.589
		c0.094,2.124,0.99,3.663,2.688,4.615c1.697,0.953,3.913,1.429,6.648,1.429c2.546,0,4.486-0.39,5.822-1.172
		C404.631,117.832,405.299,116.77,405.299,115.426z"/>
	<path fill="#006FE6" d="M443.868,76.998v9.708h8.582v7.51h-8.582V114.4c0,1.538,0.408,2.638,1.227,3.297
		c0.816,0.659,1.917,0.989,3.3,0.989c0.723,0,1.344-0.03,1.863-0.092c0.519-0.061,1.123-0.165,1.814-0.312l1.179,7.729
		c-1.383,0.367-2.734,0.642-4.055,0.824c-1.32,0.184-2.751,0.275-4.29,0.275c-4.747,0-8.401-1.014-10.963-3.041
		c-2.563-2.026-3.843-5.238-3.843-9.635V94.216h-7.449v-7.51h7.449v-9.708H443.868z"/>
</g>
<g>
	<path d="M61.014,155.58l0.033,0.058c0.043,1.331-0.741,2.446-2.353,3.345c-1.612,0.899-3.741,1.349-6.388,1.349
		c-2.69,0-4.882-0.567-6.576-1.704c-1.694-1.136-2.541-2.576-2.541-4.323v-2.521c0-1.746,0.847-3.189,2.541-4.328
		c1.694-1.14,3.886-1.709,6.576-1.709c2.69,0,4.83,0.427,6.42,1.28s2.363,1.985,2.32,3.394l-0.033,0.059h-3.088
		c0-0.993-0.49-1.778-1.471-2.356c-0.98-0.578-2.363-0.867-4.149-0.867c-1.797,0-3.229,0.432-4.297,1.294
		c-1.068,0.863-1.601,1.934-1.601,3.211v2.539c0,1.291,0.533,2.367,1.601,3.23c1.067,0.862,2.5,1.294,4.297,1.294
		c1.786,0,3.169-0.287,4.149-0.862c0.98-0.574,1.471-1.367,1.471-2.38H61.014z"/>
	<path d="M83.396,154.304c0,1.733-0.901,3.172-2.704,4.314c-1.803,1.143-4.142,1.713-7.017,1.713c-2.777,0-5.035-0.57-6.772-1.713
		c-1.737-1.143-2.606-2.581-2.606-4.314v-2.521c0-1.727,0.869-3.165,2.606-4.313c1.737-1.149,3.995-1.724,6.772-1.724
		c2.875,0,5.214,0.573,7.017,1.719c1.802,1.146,2.704,2.585,2.704,4.318V154.304z M80.178,151.763c0-1.298-0.588-2.363-1.765-3.193
		c-1.176-0.831-2.756-1.247-4.738-1.247c-1.874,0-3.369,0.416-4.485,1.247c-1.117,0.83-1.675,1.896-1.675,3.193v2.541
		c0,1.312,0.558,2.383,1.675,3.214c1.116,0.831,2.611,1.246,4.485,1.246c1.993,0,3.575-0.414,4.746-1.241
		c1.17-0.828,1.756-1.9,1.756-3.219V151.763z"/>
	<path d="M101.156,156.557c0-0.645-0.408-1.186-1.225-1.621s-2.266-0.802-4.346-1.099c-2.516-0.358-4.479-0.885-5.89-1.581
		s-2.116-1.572-2.116-2.626c0-1.106,0.76-2.03,2.279-2.772c1.52-0.741,3.488-1.112,5.906-1.112c2.603,0,4.675,0.425,6.216,1.275
		c1.541,0.851,2.285,1.837,2.23,2.96l-0.033,0.059h-3.071c0-0.831-0.46-1.503-1.38-2.016c-0.921-0.513-2.241-0.77-3.962-0.77
		c-1.601,0-2.83,0.217-3.685,0.648s-1.282,0.994-1.282,1.688c0,0.617,0.463,1.132,1.389,1.544s2.429,0.774,4.509,1.086
		c2.505,0.37,4.411,0.915,5.718,1.636c1.307,0.721,1.96,1.613,1.96,2.678c0,1.143-0.784,2.061-2.353,2.756
		c-1.569,0.694-3.616,1.041-6.143,1.041c-2.375,0-4.474-0.384-6.298-1.153s-2.709-1.797-2.655-3.082l0.033-0.059h3.071
		c0,0.909,0.561,1.601,1.683,2.074c1.122,0.474,2.51,0.711,4.166,0.711c1.623,0,2.908-0.203,3.855-0.61
		C100.682,157.806,101.156,157.254,101.156,156.557z"/>
	<path d="M125.172,147.459h-7.646v12.668h-3.219v-12.668h-7.629v-1.51h18.494V147.459z"/>
	<path d="M146.215,154.304c0,1.733-0.901,3.172-2.704,4.314c-1.803,1.143-4.142,1.713-7.017,1.713c-2.777,0-5.035-0.57-6.772-1.713
		c-1.737-1.143-2.606-2.581-2.606-4.314v-2.521c0-1.727,0.869-3.165,2.606-4.313c1.737-1.149,3.995-1.724,6.772-1.724
		c2.875,0,5.214,0.573,7.017,1.719c1.802,1.146,2.704,2.585,2.704,4.318V154.304z M142.997,151.763c0-1.298-0.588-2.363-1.765-3.193
		c-1.176-0.831-2.756-1.247-4.738-1.247c-1.874,0-3.369,0.416-4.485,1.247c-1.117,0.83-1.675,1.896-1.675,3.193v2.541
		c0,1.312,0.558,2.383,1.675,3.214c1.116,0.831,2.611,1.246,4.485,1.246c1.993,0,3.575-0.414,4.746-1.241
		c1.17-0.828,1.756-1.9,1.756-3.219V151.763z"/>
	<path d="M163.974,156.557c0-0.645-0.408-1.186-1.225-1.621s-2.266-0.802-4.346-1.099c-2.516-0.358-4.479-0.885-5.89-1.581
		s-2.116-1.572-2.116-2.626c0-1.106,0.76-2.03,2.279-2.772c1.52-0.741,3.488-1.112,5.906-1.112c2.603,0,4.675,0.425,6.216,1.275
		c1.541,0.851,2.285,1.837,2.23,2.96l-0.033,0.059h-3.071c0-0.831-0.46-1.503-1.38-2.016c-0.921-0.513-2.241-0.77-3.962-0.77
		c-1.601,0-2.83,0.217-3.685,0.648s-1.282,0.994-1.282,1.688c0,0.617,0.463,1.132,1.389,1.544s2.429,0.774,4.509,1.086
		c2.505,0.37,4.411,0.915,5.718,1.636c1.307,0.721,1.96,1.613,1.96,2.678c0,1.143-0.784,2.061-2.353,2.756
		c-1.569,0.694-3.616,1.041-6.143,1.041c-2.375,0-4.474-0.384-6.298-1.153s-2.709-1.797-2.655-3.082l0.033-0.059h3.071
		c0,0.909,0.561,1.601,1.683,2.074c1.122,0.474,2.51,0.711,4.166,0.711c1.623,0,2.908-0.203,3.855-0.61
		C163.5,157.806,163.974,157.254,163.974,156.557z"/>
	<path d="M187.468,153.155l6.208-7.206h3.676l-8.349,9.192v4.985h-3.202v-5.112l-8.218-9.065h3.676L187.468,153.155z"/>
	<path d="M212.154,154.44v5.687h-3.218v-14.178h9.1c2.538,0,4.509,0.39,5.914,1.169c1.405,0.779,2.107,1.805,2.107,3.077
		c0,1.292-0.702,2.322-2.107,3.091c-1.405,0.77-3.376,1.154-5.914,1.154H212.154z M212.154,152.931h5.882
		c1.612,0,2.815-0.257,3.61-0.772c0.795-0.515,1.193-1.164,1.193-1.948s-0.4-1.438-1.201-1.964
		c-0.801-0.524-2.001-0.787-3.603-0.787h-5.882V152.931z"/>
	<path d="M233.589,153.982v6.145h-3.218v-14.168h8.61c2.604,0,4.591,0.345,5.963,1.032c1.373,0.688,2.059,1.688,2.059,2.999
		c0,0.728-0.318,1.36-0.955,1.899c-0.638,0.538-1.566,0.967-2.786,1.285c1.308,0.253,2.247,0.664,2.818,1.231
		c0.572,0.568,0.857,1.271,0.857,2.108v1.334c0,0.441,0.082,0.837,0.245,1.188c0.164,0.351,0.447,0.637,0.85,0.857v0.233h-3.316
		c-0.425-0.221-0.697-0.545-0.816-0.974c-0.12-0.429-0.18-0.87-0.18-1.324v-1.295c0-0.767-0.376-1.383-1.128-1.851
		c-0.751-0.467-1.759-0.701-3.022-0.701H233.589z M233.589,152.474h5.064c1.819,0,3.129-0.206,3.93-0.617s1.201-1.038,1.201-1.881
		c0-0.797-0.39-1.414-1.169-1.851c-0.778-0.438-1.99-0.656-3.635-0.656h-5.392V152.474z"/>
	<path d="M266.657,153.555H255.76v5.063h12.563v1.509h-15.782v-14.178h15.603v1.51H255.76v4.586h10.897V153.555z"/>
	<path d="M285.053,156.557c0-0.645-0.408-1.186-1.226-1.621c-0.816-0.436-2.266-0.802-4.346-1.099
		c-2.516-0.358-4.479-0.885-5.89-1.581s-2.115-1.572-2.115-2.626c0-1.106,0.76-2.03,2.278-2.772c1.52-0.741,3.488-1.112,5.906-1.112
		c2.604,0,4.676,0.425,6.217,1.275s2.284,1.837,2.23,2.96l-0.033,0.059h-3.071c0-0.831-0.46-1.503-1.381-2.016
		c-0.92-0.513-2.241-0.77-3.962-0.77c-1.601,0-2.829,0.217-3.684,0.648c-0.855,0.432-1.283,0.994-1.283,1.688
		c0,0.617,0.463,1.132,1.389,1.544s2.429,0.774,4.51,1.086c2.505,0.37,4.411,0.915,5.718,1.636c1.308,0.721,1.961,1.613,1.961,2.678
		c0,1.143-0.784,2.061-2.353,2.756c-1.568,0.694-3.616,1.041-6.144,1.041c-2.374,0-4.474-0.384-6.298-1.153
		s-2.709-1.797-2.655-3.082l0.033-0.059h3.071c0,0.909,0.561,1.601,1.683,2.074s2.511,0.711,4.166,0.711
		c1.623,0,2.908-0.203,3.856-0.61C284.579,157.806,285.053,157.254,285.053,156.557z"/>
	<path d="M310.344,145.949v9.611c0,1.545-0.842,2.726-2.524,3.544s-3.88,1.227-6.592,1.227c-2.614,0-4.735-0.41-6.364-1.231
		c-1.628-0.821-2.442-2.001-2.442-3.539v-9.611h3.219v9.604c0,1.07,0.512,1.883,1.536,2.438c1.023,0.555,2.374,0.832,4.052,0.832
		c1.764,0,3.188-0.277,4.272-0.832c1.083-0.555,1.625-1.367,1.625-2.438v-9.604H310.344z"/>
	<path d="M318.823,154.44v5.687h-3.219v-14.178h9.101c2.537,0,4.509,0.39,5.914,1.169s2.107,1.805,2.107,3.077
		c0,1.292-0.702,2.322-2.107,3.091c-1.405,0.77-3.377,1.154-5.914,1.154H318.823z M318.823,152.931h5.882
		c1.611,0,2.815-0.257,3.61-0.772c0.795-0.515,1.192-1.164,1.192-1.948s-0.399-1.438-1.2-1.964
		c-0.801-0.524-2.002-0.787-3.603-0.787h-5.882V152.931z"/>
	<path d="M354.423,145.949v9.611c0,1.545-0.842,2.726-2.524,3.544s-3.88,1.227-6.592,1.227c-2.614,0-4.735-0.41-6.364-1.231
		c-1.628-0.821-2.442-2.001-2.442-3.539v-9.611h3.219v9.604c0,1.07,0.512,1.883,1.536,2.438c1.023,0.555,2.374,0.832,4.052,0.832
		c1.764,0,3.188-0.277,4.272-0.832c1.083-0.555,1.625-1.367,1.625-2.438v-9.604H354.423z"/>
	<path d="M373.8,153.555h-10.897v5.063h12.563v1.509h-15.782v-14.178h15.603v1.51h-12.384v4.586H373.8V153.555z"/>
	<path d="M392.195,156.557c0-0.645-0.408-1.186-1.226-1.621c-0.816-0.436-2.266-0.802-4.346-1.099
		c-2.516-0.358-4.479-0.885-5.89-1.581s-2.115-1.572-2.115-2.626c0-1.106,0.76-2.03,2.278-2.772c1.52-0.741,3.488-1.112,5.906-1.112
		c2.604,0,4.676,0.425,6.217,1.275s2.284,1.837,2.23,2.96l-0.033,0.059h-3.071c0-0.831-0.46-1.503-1.381-2.016
		c-0.92-0.513-2.241-0.77-3.962-0.77c-1.601,0-2.829,0.217-3.684,0.648c-0.855,0.432-1.283,0.994-1.283,1.688
		c0,0.617,0.463,1.132,1.389,1.544s2.429,0.774,4.51,1.086c2.505,0.37,4.411,0.915,5.718,1.636c1.308,0.721,1.961,1.613,1.961,2.678
		c0,1.143-0.784,2.061-2.353,2.756c-1.568,0.694-3.616,1.041-6.144,1.041c-2.374,0-4.474-0.384-6.298-1.153
		s-2.709-1.797-2.655-3.082l0.033-0.059h3.071c0,0.909,0.561,1.601,1.683,2.074s2.511,0.711,4.166,0.711
		c1.623,0,2.908-0.203,3.856-0.61C391.722,157.806,392.195,157.254,392.195,156.557z"/>
	<path d="M416.212,147.459h-7.646v12.668h-3.218v-12.668h-7.63v-1.51h18.494V147.459z"/>
	<path d="M437.256,154.304c0,1.733-0.901,3.172-2.704,4.314s-4.142,1.713-7.018,1.713c-2.777,0-5.034-0.57-6.771-1.713
		s-2.606-2.581-2.606-4.314v-2.521c0-1.727,0.869-3.165,2.606-4.313c1.737-1.149,3.994-1.724,6.771-1.724
		c2.876,0,5.215,0.573,7.018,1.719s2.704,2.585,2.704,4.318V154.304z M434.037,151.763c0-1.298-0.588-2.363-1.765-3.193
		c-1.177-0.831-2.756-1.247-4.738-1.247c-1.873,0-3.368,0.416-4.484,1.247c-1.116,0.83-1.675,1.896-1.675,3.193v2.541
		c0,1.312,0.559,2.383,1.675,3.214s2.611,1.246,4.484,1.246c1.993,0,3.575-0.414,4.746-1.241c1.171-0.828,1.757-1.9,1.757-3.219
		V151.763z"/>
	<path d="M455.014,156.557c0-0.645-0.408-1.186-1.226-1.621c-0.816-0.436-2.266-0.802-4.346-1.099
		c-2.516-0.358-4.479-0.885-5.89-1.581s-2.115-1.572-2.115-2.626c0-1.106,0.76-2.03,2.278-2.772c1.52-0.741,3.488-1.112,5.906-1.112
		c2.604,0,4.676,0.425,6.217,1.275s2.284,1.837,2.23,2.96l-0.033,0.059h-3.071c0-0.831-0.46-1.503-1.381-2.016
		c-0.92-0.513-2.241-0.77-3.962-0.77c-1.601,0-2.829,0.217-3.684,0.648c-0.855,0.432-1.283,0.994-1.283,1.688
		c0,0.617,0.463,1.132,1.389,1.544s2.429,0.774,4.51,1.086c2.505,0.37,4.411,0.915,5.718,1.636c1.308,0.721,1.961,1.613,1.961,2.678
		c0,1.143-0.784,2.061-2.353,2.756c-1.568,0.694-3.616,1.041-6.144,1.041c-2.374,0-4.474-0.384-6.298-1.153
		s-2.709-1.797-2.655-3.082l0.033-0.059h3.071c0,0.909,0.561,1.601,1.683,2.074s2.511,0.711,4.166,0.711
		c1.623,0,2.908-0.203,3.856-0.61C454.54,157.806,455.014,157.254,455.014,156.557z"/>
</g>
</svg>
