<?xml version="1.0" standalone="no"?>
<!DOCTYPE svg PUBLIC "-//W3C//DTD SVG 20010904//EN"
 "http://www.w3.org/TR/2001/REC-SVG-20010904/DTD/svg10.dtd">
<svg version="1.0" xmlns="http://www.w3.org/2000/svg"
 width="800.000000pt" height="800.000000pt" viewBox="0 0 800.000000 800.000000"
 preserveAspectRatio="xMidYMid meet">

<g transform="translate(0.000000,800.000000) scale(0.100000,-0.100000)"
fill="#000000" stroke="none">
<path d="M1906 7395 c-11 -8 -15 -15 -9 -15 6 0 16 7 23 15 16 19 11 19 -14 0z"/>
<path d="M6082 7394 c10 -10 20 -16 22 -13 3 3 -5 11 -17 18 -21 13 -21 12 -5
-5z"/>
<path d="M1785 7320 c-3 -6 1 -7 9 -4 18 7 21 14 7 14 -6 0 -13 -4 -16 -10z"/>
<path d="M1649 7223 c-13 -16 -12 -17 4 -4 9 7 17 15 17 17 0 8 -8 3 -21 -13z"/>
<path d="M6330 7236 c0 -2 8 -10 18 -17 15 -13 16 -12 3 4 -13 16 -21 21 -21
13z"/>
<path d="M1269 6903 c-13 -16 -12 -17 4 -4 9 7 17 15 17 17 0 8 -8 3 -21 -13z"/>
<path d="M6710 6916 c0 -2 8 -10 18 -17 15 -13 16 -12 3 4 -13 16 -21 21 -21
13z"/>
<path d="M1024 6658 l-19 -23 23 19 c21 18 27 26 19 26 -2 0 -12 -10 -23 -22z"/>
<path d="M6965 6660 c10 -11 20 -20 23 -20 3 0 -3 9 -13 20 -10 11 -20 20 -23
20 -3 0 3 -9 13 -20z"/>
<path d="M819 6413 c-13 -16 -12 -17 4 -4 16 13 21 21 13 21 -2 0 -10 -8 -17
-17z"/>
<path d="M676 6203 c-6 -14 -5 -15 5 -6 7 7 10 15 7 18 -3 3 -9 -2 -12 -12z"/>
<path d="M7310 6211 c0 -6 4 -13 10 -16 6 -3 7 1 4 9 -7 18 -14 21 -14 7z"/>
<path d="M566 6033 c-6 -14 -5 -15 5 -6 7 7 10 15 7 18 -3 3 -9 -2 -12 -12z"/>
<path d="M7420 6043 c0 -6 8 -17 18 -24 16 -13 16 -13 2 6 -8 11 -16 22 -17
24 -2 2 -3 0 -3 -6z"/>
<path d="M350 5621 c0 -6 4 -13 10 -16 6 -3 7 1 4 9 -7 18 -14 21 -14 7z"/>
<path d="M7636 5613 c-6 -14 -5 -15 5 -6 7 7 10 15 7 18 -3 3 -9 -2 -12 -12z"/>
<path d="M2505 5107 c-27 -5 -66 -9 -85 -9 -19 0 -29 -3 -21 -5 14 -6 -82 -63
-106 -63 -8 0 -12 -4 -8 -10 3 -5 -7 -16 -23 -24 -16 -8 -34 -22 -41 -30 -7
-9 -17 -14 -21 -11 -5 3 -12 0 -16 -6 -4 -8 -3 -9 4 -5 19 11 14 -11 -6 -31
-11 -10 -22 -26 -25 -36 -4 -10 -11 -16 -16 -12 -5 3 -13 0 -17 -6 -4 -8 -3
-9 4 -5 18 11 14 -3 -9 -35 -21 -30 -51 -101 -71 -169 -6 -19 -13 -39 -17 -45
-3 -5 -7 -19 -7 -30 -1 -11 -7 -58 -14 -104 -16 -107 -8 -282 18 -383 14 -56
16 -80 8 -88 -8 -8 -6 -9 8 -4 13 5 17 4 13 -4 -4 -6 2 -27 14 -46 12 -20 18
-43 15 -52 -4 -10 -2 -13 6 -8 8 5 9 1 4 -12 -4 -10 -4 -15 0 -11 10 10 36
-31 28 -45 -4 -7 -3 -8 4 -4 7 4 12 3 12 -2 0 -6 20 -32 45 -60 24 -27 41 -53
37 -57 -4 -5 -2 -5 4 -2 12 7 46 -28 36 -38 -4 -4 -2 -6 3 -4 17 4 45 -12 39
-22 -3 -5 -2 -8 3 -7 13 4 73 -23 73 -33 0 -5 11 -9 25 -9 14 0 25 -4 25 -8 0
-5 46 -10 102 -11 56 -1 106 -5 111 -8 6 -3 7 -1 4 4 -6 9 40 24 73 25 3 0 17
9 32 19 14 10 31 19 37 19 7 0 14 6 17 14 6 15 20 16 44 1 13 -8 13 -7 0 9
-13 16 -12 20 4 32 11 7 23 11 29 7 6 -3 7 -2 4 4 -8 13 22 55 34 48 5 -4 9
-1 9 5 0 16 37 62 42 53 3 -5 3 -2 1 6 -2 8 5 23 14 33 10 11 16 21 14 22 -2
0 -1 11 3 24 4 13 13 21 20 19 7 -3 13 1 13 9 0 7 -4 11 -9 8 -4 -3 2 11 13
31 12 20 19 39 16 42 -4 3 -1 15 5 27 7 11 13 26 14 31 0 6 2 12 3 15 4 8 10
42 21 118 14 101 12 253 -4 337 -8 39 -12 74 -9 78 3 4 -1 15 -8 23 -11 13
-18 43 -22 86 -1 9 -3 15 -6 13 -8 -9 -30 46 -25 63 4 12 3 13 -3 4 -7 -9 -13
-6 -21 13 -7 15 -10 30 -7 35 3 5 0 12 -6 16 -8 5 -9 3 -4 -6 5 -9 4 -11 -4
-6 -7 4 -10 13 -9 18 2 6 -5 21 -16 33 -12 12 -40 42 -64 67 -23 25 -63 60
-90 77 -26 17 -53 35 -59 41 -7 6 -16 11 -20 11 -5 1 -17 5 -29 9 -43 17 -141
25 -189 17z"/>
<path d="M5372 5104 c-40 -7 -79 -18 -87 -24 -8 -7 -15 -9 -15 -4 0 5 -4 4 -8
-1 -8 -13 -105 -70 -112 -67 -3 1 -5 -1 -5 -6 0 -7 -45 -59 -101 -117 -11 -12
-18 -27 -16 -33 1 -5 -2 -14 -9 -18 -8 -5 -9 -3 -4 6 5 9 4 11 -4 6 -6 -4 -9
-11 -6 -16 3 -5 0 -20 -7 -35 -8 -19 -14 -22 -21 -13 -6 9 -7 8 -3 -4 6 -20
-17 -71 -28 -61 -4 4 -4 0 0 -10 3 -9 1 -23 -5 -31 -6 -7 -8 -15 -5 -19 3 -3
0 -15 -6 -27 -7 -13 -13 -32 -15 -44 -1 -11 -8 -56 -15 -99 -18 -107 -8 -308
20 -407 11 -41 22 -85 24 -97 2 -12 11 -34 21 -49 9 -14 13 -24 8 -21 -5 4
-10 0 -10 -7 0 -8 6 -12 13 -9 10 4 29 -29 26 -47 0 -3 6 -12 14 -21 8 -9 13
-22 11 -30 -2 -8 -2 -11 0 -7 3 4 25 -16 50 -45 25 -29 54 -59 66 -68 18 -15
16 -46 -3 -34 -5 3 -11 1 -14 -4 -4 -5 2 -8 11 -6 10 2 18 4 18 5 0 1 8 3 17
5 9 2 19 -3 22 -11 3 -8 10 -14 17 -14 6 0 23 -9 37 -19 15 -10 29 -19 32 -19
33 -1 79 -16 73 -25 -3 -5 -2 -8 3 -5 5 3 54 7 109 9 55 2 103 8 107 13 4 6
14 4 25 -4 10 -8 15 -11 11 -6 -4 5 -2 14 5 20 16 15 70 40 80 37 5 -1 6 3 3
8 -6 10 22 26 39 22 6 -2 7 1 3 4 -4 4 16 32 44 62 29 29 59 65 68 78 9 14 20
22 25 18 4 -5 5 -2 1 4 -8 15 17 56 28 46 4 -4 4 1 0 11 -5 13 -4 17 4 12 8
-5 10 -2 6 8 -3 9 3 32 15 52 12 19 18 40 14 46 -4 8 0 9 13 4 14 -5 16 -4 8
4 -8 8 -6 32 8 88 26 104 34 276 18 382 -7 47 -13 94 -14 105 0 11 -4 25 -7
30 -4 6 -11 26 -17 45 -6 19 -20 60 -32 90 -12 30 -23 63 -23 72 -1 9 -3 15
-6 13 -6 -7 -31 16 -31 29 0 6 5 4 10 -4 7 -11 10 -12 10 -2 0 8 -9 16 -20 19
-11 3 -20 9 -20 13 0 4 -11 20 -25 36 -14 16 -25 32 -25 36 0 4 -18 20 -40 34
-22 15 -38 30 -35 34 2 3 -1 7 -8 7 -23 1 -119 61 -106 66 8 2 -2 5 -21 5 -19
0 -58 4 -85 9 -34 6 -74 5 -123 -3z"/>
<path d="M2725 5090 c-3 -6 1 -7 9 -4 9 3 16 1 16 -5 0 -5 10 -16 23 -22 21
-12 21 -11 -3 14 -27 29 -36 32 -45 17z"/>
<path d="M5230 5073 c-24 -25 -24 -26 -2 -14 12 6 22 17 22 22 0 6 7 8 16 5 8
-3 12 -2 9 4 -9 15 -18 12 -45 -17z"/>
<path d="M2090 4819 c0 -5 5 -7 10 -4 6 3 10 8 10 11 0 2 -4 4 -10 4 -5 0 -10
-5 -10 -11z"/>
<path d="M2904 3706 c1 -8 5 -18 8 -22 4 -3 5 1 4 10 -1 8 -5 18 -8 22 -4 3
-5 -1 -4 -10z"/>
<path d="M5085 3711 c-3 -5 -2 -12 3 -15 5 -3 9 1 9 9 0 17 -3 19 -12 6z"/>
<path d="M2380 2674 c0 -10 -6 -14 -15 -10 -9 3 -15 0 -15 -9 0 -8 -7 -15 -14
-15 -8 0 -29 -15 -47 -32 -17 -18 -28 -27 -24 -19 6 10 4 12 -4 7 -7 -5 -10
-14 -8 -21 3 -6 -3 -25 -13 -40 -24 -36 -21 -149 4 -188 10 -14 14 -32 10 -38
-4 -8 -3 -9 4 -5 7 4 12 3 12 -1 0 -5 24 -24 53 -43 l52 -35 1625 0 1625 0 53
35 c28 19 52 38 52 43 0 4 5 5 12 1 7 -4 8 -3 4 5 -4 6 0 24 10 38 26 40 27
149 3 190 -11 17 -18 37 -17 44 2 7 -2 13 -9 14 -6 0 -21 10 -33 23 -11 12
-27 22 -35 22 -8 0 -15 7 -15 15 0 9 -6 12 -15 9 -9 -4 -15 0 -15 10 0 9 -4
16 -10 16 -5 0 -7 -6 -5 -12 4 -10 -321 -13 -1605 -13 -1284 0 -1609 3 -1605
13 2 6 0 12 -5 12 -6 0 -10 -7 -10 -16z"/>
<path d="M355 2389 c-4 -6 -5 -12 -2 -15 2 -3 7 2 10 11 7 17 1 20 -8 4z"/>
<path d="M5712 2262 c-21 -17 -22 -18 -3 -18 11 0 19 5 18 11 -1 5 4 9 11 7 8
-1 11 2 7 8 -8 12 -6 13 -33 -8z"/>
<path d="M2273 2257 c0 -7 9 -13 19 -13 10 0 18 1 18 3 0 1 -8 7 -18 12 -13 7
-19 6 -19 -2z"/>
<path d="M566 1967 c3 -10 9 -15 12 -12 3 3 0 11 -7 18 -10 9 -11 8 -5 -6z"/>
<path d="M7425 1969 c-4 -6 -5 -12 -2 -15 2 -3 7 2 10 11 7 17 1 20 -8 4z"/>
<path d="M676 1797 c3 -10 9 -15 12 -12 3 3 0 11 -7 18 -10 9 -11 8 -5 -6z"/>
<path d="M7315 1799 c-4 -6 -5 -12 -2 -15 2 -3 7 2 10 11 7 17 1 20 -8 4z"/>
<path d="M821 1583 c7 -12 15 -20 18 -17 3 2 -3 12 -13 22 -17 16 -18 16 -5
-5z"/>
<path d="M7170 1585 c-7 -9 -11 -17 -9 -20 3 -2 10 5 17 15 14 24 10 26 -8 5z"/>
<path d="M1025 1340 c10 -11 20 -20 23 -20 3 0 -3 9 -13 20 -10 11 -20 20 -23
20 -3 0 3 -9 13 -20z"/>
<path d="M6964 1338 l-19 -23 23 19 c21 18 27 26 19 26 -2 0 -12 -10 -23 -22z"/>
<path d="M1260 1106 c0 -2 8 -10 18 -17 15 -13 16 -12 3 4 -13 16 -21 21 -21
13z"/>
<path d="M6719 1093 c-13 -16 -12 -17 4 -4 16 13 21 21 13 21 -2 0 -10 -8 -17
-17z"/>
<path d="M1640 786 c0 -2 8 -10 18 -17 15 -13 16 -12 3 4 -13 16 -21 21 -21
13z"/>
<path d="M1787 679 c7 -7 15 -10 18 -7 3 3 -2 9 -12 12 -14 6 -15 5 -6 -5z"/>
<path d="M1891 617 c2 -1 13 -9 24 -17 19 -14 19 -14 6 3 -7 9 -18 17 -24 17
-6 0 -8 -1 -6 -3z"/>
<path d="M6079 603 c-13 -17 -13 -17 6 -3 11 8 22 16 24 17 2 2 0 3 -6 3 -6 0
-17 -8 -24 -17z"/>
<path d="M5600 350 c-8 -5 -10 -10 -5 -10 6 0 17 5 25 10 8 5 11 10 5 10 -5 0
-17 -5 -25 -10z"/>
</g>
</svg>
