<?xml version="1.0" standalone="no"?>
<!DOCTYPE svg PUBLIC "-//W3C//DTD SVG 20010904//EN"
 "http://www.w3.org/TR/2001/REC-SVG-20010904/DTD/svg10.dtd">
<svg version="1.0" xmlns="http://www.w3.org/2000/svg"
 width="452.000000pt" height="452.000000pt" viewBox="0 0 452.000000 452.000000"
 preserveAspectRatio="xMidYMid meet">
<metadata>
Created by potrace 1.16, written by Peter Selinger 2001-2019
</metadata>
<g transform="translate(0.000000,452.000000) scale(0.100000,-0.100000)"
fill="#000000" stroke="none">
<path d="M2826 4398 c-55 -8 -156 -46 -156 -59 0 -5 -11 -11 -25 -15 -14 -3
-25 -10 -25 -15 0 -5 -5 -9 -12 -9 -15 0 -162 -149 -154 -157 9 -9 -26 -30
-90 -54 -33 -12 -64 -27 -70 -35 -6 -8 -14 -11 -17 -7 -4 3 -7 2 -7 -4 0 -6
-11 -18 -25 -27 -22 -15 -28 -15 -70 0 -26 8 -56 16 -68 18 -12 1 -29 5 -37 9
-34 13 -152 25 -249 25 -108 -1 -194 -15 -246 -42 -17 -9 -34 -16 -40 -16 -33
0 -245 -179 -245 -207 0 -7 -5 -13 -12 -13 -6 0 -9 -3 -6 -6 14 -13 -41 -51
-90 -62 -163 -36 -282 -150 -351 -333 -46 -124 -53 -426 -12 -569 44 -153 43
-142 14 -172 -15 -16 -23 -28 -17 -28 5 0 2 -5 -6 -10 -22 -14 -20 -182 3
-230 54 -116 120 -200 179 -229 23 -12 27 -22 33 -75 8 -65 32 -141 72 -221
42 -85 52 -102 83 -135 17 -18 30 -35 30 -39 0 -3 8 -11 18 -17 15 -10 17 -27
14 -162 l-3 -150 -59 -7 c-33 -4 -60 -11 -60 -16 0 -4 -7 -6 -15 -3 -8 4 -21
1 -29 -5 -7 -6 -15 -9 -18 -6 -7 7 -105 -24 -162 -51 -27 -13 -54 -24 -60 -24
-13 0 -149 -81 -158 -95 -4 -5 -8 -7 -8 -3 0 7 -25 -11 -55 -40 -8 -6 -17 -12
-22 -12 -9 0 -179 -163 -203 -195 -8 -11 -29 -38 -46 -60 -47 -60 -132 -213
-138 -248 -1 -7 -7 -22 -14 -34 -24 -44 -72 -256 -78 -346 l-6 -92 1449 3
1450 2 57 -25 c31 -14 56 -21 56 -17 0 4 4 2 8 -5 4 -6 48 -24 97 -39 83 -26
103 -28 270 -28 148 -1 193 3 253 19 39 10 72 21 72 24 0 3 12 7 27 8 15 0 29
6 31 12 2 6 8 9 13 5 5 -3 9 -1 9 3 0 5 9 9 20 10 11 1 33 10 48 20 56 37 67
44 85 49 9 4 17 10 17 15 0 5 5 9 11 9 6 0 26 12 43 27 18 16 46 38 63 51 16
12 36 34 43 47 7 14 19 25 27 25 7 0 13 3 13 8 0 4 16 25 35 47 19 22 35 45
35 51 0 5 8 19 18 30 58 62 129 245 152 389 13 85 10 283 -6 359 -28 137 -88
281 -150 363 -13 17 -24 36 -24 42 0 6 -9 16 -20 23 -11 7 -20 17 -20 22 0 11
-145 156 -156 156 -5 0 -21 11 -36 25 -30 27 -158 101 -158 90 0 -3 -7 0 -15
8 -14 15 -149 61 -210 72 -122 24 -254 30 -305 14 -13 -3 -15 14 -18 112 l-3
117 54 56 c43 44 128 183 133 215 0 3 6 19 12 34 7 15 14 49 16 75 3 26 11 51
19 57 71 54 104 96 136 175 43 108 35 215 -20 253 l-21 15 26 107 c15 58 31
140 37 182 16 114 0 319 -31 398 -7 17 -14 41 -16 54 -3 13 -15 42 -26 65 -12
22 -23 47 -24 55 -2 8 -6 17 -11 20 -4 3 -17 23 -28 43 -37 71 -172 197 -261
245 -58 30 -182 74 -254 89 -47 10 -243 11 -304 2z m270 -113 c428 -75 655
-458 558 -943 -9 -41 -20 -86 -26 -100 -10 -25 -11 -24 -23 34 -17 81 -46 135
-92 173 -61 51 -108 61 -278 61 -175 0 -259 17 -373 74 -86 43 -204 137 -256
205 -39 49 -40 49 -67 35 -16 -8 -30 -10 -33 -5 -4 5 -44 35 -91 67 l-86 58
23 17 c21 16 58 29 128 43 17 4 35 23 57 59 18 30 59 79 92 109 125 116 260
149 467 113z m-1111 -340 c227 -37 427 -147 551 -303 55 -70 129 -216 149
-296 40 -158 41 -303 4 -466 -23 -102 -78 -260 -90 -260 -5 0 -9 40 -9 90 0
160 -61 262 -186 310 -53 21 -82 24 -284 30 -208 6 -230 8 -298 32 -130 47
-218 104 -332 216 l-105 104 -35 -12 c-98 -34 -199 -129 -255 -240 -53 -106
-66 -175 -72 -368 -3 -95 -9 -170 -13 -165 -18 19 -80 205 -95 288 -32 167 -7
404 56 527 29 57 91 120 143 146 25 13 77 30 117 38 40 8 76 17 81 20 5 3 18
24 29 47 28 54 121 152 184 192 49 32 146 70 195 78 59 10 181 6 265 -8z m841
-458 c120 -61 165 -70 374 -76 222 -7 249 -15 285 -86 18 -37 20 -64 23 -315
3 -219 0 -290 -12 -350 -40 -194 -176 -356 -353 -422 -32 -12 -69 -32 -83 -44
-70 -64 -163 -68 -228 -10 -20 18 -53 38 -73 45 l-36 12 39 77 c72 143 76 256
11 321 l-35 35 23 75 c37 124 48 190 55 306 9 163 -16 295 -92 479 -7 19 -7
19 22 -1 16 -11 52 -32 80 -46z m-1406 -268 c129 -121 283 -212 427 -251 65
-17 110 -21 273 -23 219 -2 265 -11 315 -61 50 -50 55 -89 55 -434 0 -245 -3
-327 -16 -387 -48 -234 -203 -412 -438 -502 -44 -17 -89 -39 -100 -49 -71 -65
-195 -61 -271 9 -12 10 -47 28 -79 39 -100 34 -187 89 -261 165 -80 81 -125
152 -163 257 l-27 73 0 460 c0 454 0 461 23 526 28 82 83 162 140 206 24 18
47 33 50 33 4 0 36 -27 72 -61z m-490 -671 c0 -5 20 -46 45 -90 38 -68 45 -88
45 -136 l0 -55 -25 23 c-57 54 -112 212 -91 265 6 17 26 12 26 -7z m1785 -6
c7 -36 -9 -111 -36 -165 -27 -52 -67 -107 -80 -107 -5 0 -9 21 -9 46 0 37 12
70 53 150 28 57 55 104 59 104 3 0 9 -13 13 -28z m561 -517 c-4 -15 -22 -26
-63 -39 -85 -26 -215 -89 -281 -135 -32 -23 -64 -41 -72 -41 -30 0 -136 58
-174 95 -68 67 -96 121 -96 185 0 50 3 58 23 67 18 9 35 6 82 -13 32 -13 68
-33 79 -43 83 -78 231 -79 326 -2 19 15 51 33 70 40 19 6 51 20 70 31 l35 18
3 -71 c2 -40 1 -81 -2 -92z m443 -126 c91 -21 222 -78 296 -129 138 -95 276
-268 334 -419 90 -233 78 -519 -30 -734 -154 -305 -437 -489 -774 -504 -379
-17 -711 185 -871 532 -100 217 -104 500 -8 727 38 91 121 213 195 287 225
224 540 313 858 240z m-1062 -102 c26 -19 65 -43 85 -53 l37 -17 -42 -51 c-80
-94 -156 -224 -187 -320 -12 -38 -13 -38 -54 -32 -22 4 -60 10 -83 13 l-43 6
0 153 0 154 55 70 c30 39 69 100 86 135 l32 65 33 -44 c18 -24 55 -59 81 -79z
m-1244 -271 c31 -18 85 -44 119 -57 35 -12 81 -36 102 -51 103 -74 253 -73
349 2 15 12 55 32 88 45 34 14 90 40 125 60 l64 35 0 -129 0 -129 -41 -60
c-209 -314 -634 -304 -835 20 -33 52 -34 54 -34 176 0 67 2 122 4 122 2 0 29
-15 59 -34z m-98 -343 c85 -129 220 -226 361 -259 133 -31 306 -6 421 62 64
37 173 144 208 203 34 57 38 58 142 40 l63 -11 -8 -57 c-4 -31 -6 -108 -6
-171 3 -258 97 -480 288 -677 l89 -93 -1323 0 -1323 0 6 53 c27 221 168 494
338 651 165 153 370 259 579 301 118 24 122 22 165 -42z"/>
<path d="M3390 1626 l0 -64 -53 -30 c-61 -35 -96 -73 -135 -146 -23 -44 -27
-63 -26 -136 0 -98 20 -153 79 -219 49 -54 104 -84 209 -115 102 -29 133 -47
146 -82 37 -97 -46 -187 -144 -154 -42 13 -76 53 -76 86 0 24 -1 24 -111 24
l-112 0 7 -46 c13 -101 92 -211 177 -250 l39 -17 0 -69 0 -68 110 0 110 0 0
68 0 68 34 12 c56 21 122 87 158 159 60 122 38 256 -58 362 -47 53 -93 77
-214 112 -115 34 -140 57 -140 127 1 73 42 112 120 112 34 0 48 -6 76 -34 19
-19 34 -43 34 -55 0 -20 5 -21 111 -21 l111 0 -7 33 c-23 117 -91 214 -180
257 l-45 22 0 64 0 64 -110 0 -110 0 0 -64z"/>
</g>
</svg>
