<?xml version="1.0"?>
<svg xmlns="http://www.w3.org/2000/svg" viewBox="0 0 64 64" width="512" height="512"><g id="Packages"><polygon points="16 57 48 57 56 57 61 57 61 51 3 51 3 57 8 57 16 57" style="fill:#b1d5ff"/><rect x="8" y="57" width="8" height="4" style="fill:#b1d5ff"/><rect x="48" y="57" width="8" height="4" style="fill:#b1d5ff"/><polygon points="22 25 22 31 16 31 16 25 6 25 6 47 32 47 32 25 22 25" style="fill:#b1d5ff"/><polygon points="48 25 48 31 42 31 42 25 32 25 32 47 58 47 58 25 48 25" style="fill:#b1d5ff"/><polygon points="35 3 35 9 29 9 29 3 19 3 19 25 22 25 32 25 42 25 45 25 45 3 35 3" style="fill:#b1d5ff"/><path d="M61,50H3a1,1,0,0,0-1,1v6a1,1,0,0,0,1,1H7v3a1,1,0,0,0,1,1h8a1,1,0,0,0,1-1V58H47v3a1,1,0,0,0,1,1h8a1,1,0,0,0,1-1V58h4a1,1,0,0,0,1-1V51A1,1,0,0,0,61,50ZM15,60H9V58h6Zm40,0H49V58h6Zm5-4H4V52H60Z" style="fill:#1e81ce"/><path d="M6,48H58a1,1,0,0,0,1-1V25a1,1,0,0,0-1-1H46V3a1,1,0,0,0-1-1H19a1,1,0,0,0-1,1V24H6a1,1,0,0,0-1,1V47A1,1,0,0,0,6,48Zm51-2H33V26h8v5a1,1,0,0,0,1,1h6a1,1,0,0,0,1-1V26h8ZM47,30H43V26h4ZM34,4V8H30V4ZM20,4h8V9a1,1,0,0,0,1,1h6a1,1,0,0,0,1-1V4h8V24H20Zm1,22v4H17V26ZM7,26h8v5a1,1,0,0,0,1,1h6a1,1,0,0,0,1-1V26h8V46H7Z" style="fill:#1e81ce"/><path d="M14,42H10a1,1,0,0,0,0,2h4a1,1,0,0,0,0-2Z" style="fill:#1e81ce"/><path d="M14,39H10a1,1,0,0,0,0,2h4a1,1,0,0,0,0-2Z" style="fill:#1e81ce"/><path d="M18,39H17a1,1,0,0,0,0,2h1a1,1,0,0,0,0-2Z" style="fill:#1e81ce"/><path d="M18,42H17a1,1,0,0,0,0,2h1a1,1,0,0,0,0-2Z" style="fill:#1e81ce"/><path d="M23,22h4a1,1,0,0,0,0-2H23a1,1,0,0,0,0,2Z" style="fill:#1e81ce"/><path d="M23,19h4a1,1,0,0,0,0-2H23a1,1,0,0,0,0,2Z" style="fill:#1e81ce"/><path d="M30,19h1a1,1,0,0,0,0-2H30a1,1,0,0,0,0,2Z" style="fill:#1e81ce"/><path d="M30,22h1a1,1,0,0,0,0-2H30a1,1,0,0,0,0,2Z" style="fill:#1e81ce"/><path d="M40,42H36a1,1,0,0,0,0,2h4a1,1,0,0,0,0-2Z" style="fill:#1e81ce"/><path d="M40,39H36a1,1,0,0,0,0,2h4a1,1,0,0,0,0-2Z" style="fill:#1e81ce"/><path d="M44,39H43a1,1,0,0,0,0,2h1a1,1,0,0,0,0-2Z" style="fill:#1e81ce"/><path d="M44,42H43a1,1,0,0,0,0,2h1a1,1,0,0,0,0-2Z" style="fill:#1e81ce"/></g></svg>
