<?xml version="1.0" encoding="utf-8"?>
<!-- Generator: Adobe Illustrator 16.0.2, SVG Export Plug-In . SVG Version: 6.00 Build 0)  -->
<!DOCTYPE svg PUBLIC "-//W3C//DTD SVG 1.1//EN" "http://www.w3.org/Graphics/SVG/1.1/DTD/svg11.dtd">
<svg version="1.1" id="Layer_1" xmlns="http://www.w3.org/2000/svg" xmlns:xlink="http://www.w3.org/1999/xlink" x="0px" y="0px"
	 width="480px" height="480px" viewBox="0 0 480 480" enable-background="new 0 0 480 480" xml:space="preserve">
<rect x="0" y="0" fill="#F5F6F8" width="480" height="480"/>
<g>
	<path fill="#8C9DAD" d="M411.968,354h-5v-5h-10c0-11.03-8.97-20-20-20h-70V151.93L269.038,114h-20.591l4.494-10.854l-9.237-3.831
		l-11.482,27.715l9.24,3.831l2.84-6.86h17.667v35h34.999v170h-5c-5.515,0-10.001-4.484-10.001-10h-9.999c0,11.029,8.97,20,20,20h85
		c5.516,0,10,4.485,10,10H225.583l-25,15h-73.616V119h50.591l4.915,11.865l9.241-3.831L180.232,99.32l-9.238,3.831l2.424,5.85
		h-56.45v265h83.616l25,15h181.384v-5h5c8.269,0,15-6.731,15-15C426.968,360.731,420.236,354,411.968,354z M271.968,131.071
		L289.897,149h-17.93V131.071z M231.968,359h145v20h-145V359z M221.968,362.831v12.339L211.687,369L221.968,362.831z M396.968,379
		h-10v-20h10V379z M411.968,374h-5v-10h5c2.754,0,5,2.241,5,5S414.721,374,411.968,374z"/>
	<path fill="#8C9DAD" d="M157.239,183.49c-1.941,19.809,6.543,38.559,22.683,50.156c1.282,0.917,2.046,2.414,2.046,3.999V249
		c0,16.545,13.455,30,30,30s30-13.455,30-30v-11.355c0-1.585,0.744-3.064,2-3.96c14.398-10.324,23-27.032,23-44.685
		c0-15.621-6.68-30.559-18.326-40.984c-11.63-10.415-27.27-15.381-42.929-13.667C180.132,137.174,159.743,157.845,157.239,183.49z
		 M191.968,239h40v10h-40V239z M196.968,209h-2.5c-1.379,0-2.5-1.121-2.5-2.5c0-1.38,1.121-2.5,2.5-2.5s2.5,1.12,2.5,2.5V209z
		 M216.968,229h-10v-10h10V229z M211.968,269c-7.371,0-13.75-4.05-17.219-10h34.434C225.718,264.95,219.338,269,211.968,269z
		 M206.814,144.29c1.748-0.195,3.489-0.291,5.215-0.291c11.104,0,21.584,3.98,29.944,11.465c9.531,8.53,14.995,20.754,14.995,33.536
		c0,14.44-7.042,28.105-18.826,36.554c-1.318,0.945-2.38,2.151-3.303,3.445h-7.871v-10h2.5c6.89,0,12.5-5.611,12.5-12.5
		s-5.61-12.5-12.5-12.5c-6.889,0-12.5,5.61-12.5,12.5v2.5h-10v-2.5c0-6.89-5.61-12.5-12.5-12.5s-12.5,5.61-12.5,12.5
		s5.61,12.5,12.5,12.5h2.5v10h-7.881c-0.935-1.307-2-2.515-3.335-3.475c-13.215-9.489-20.154-24.84-18.564-41.061
		C169.238,163.494,185.903,146.6,206.814,144.29z M226.968,209v-2.5c0-1.38,1.12-2.5,2.5-2.5s2.5,1.12,2.5,2.5
		c0,1.379-1.121,2.5-2.5,2.5H226.968z"/>
	<path fill="#8C9DAD" d="M236.968,189.001h10c0-9.945-4.256-19.452-11.665-26.084l-6.669,7.448
		C233.933,175.106,236.968,181.901,236.968,189.001z"/>
	<path fill="#8C9DAD" d="M223.633,155.99c-3.74-1.321-7.661-1.99-11.665-1.99v10c2.866,0,5.664,0.48,8.335,1.42L223.633,155.99z"/>
	<path fill="#8C9DAD" d="M206.968,79h10v45h-10V79z"/>
	<path fill="#8C9DAD" d="M163.337,84.672l9.238-3.828l3.828,9.236l-9.238,3.828L163.337,84.672z"/>
	<path fill="#8C9DAD" d="M247.528,90.081l3.829-9.235l9.238,3.826l-3.829,9.238L247.528,90.081z"/>
	<path fill="#8C9DAD" d="M136.968,289h10v10h-10V289z"/>
	<path fill="#8C9DAD" d="M156.968,289h100v10h-100V289z"/>
	<path fill="#8C9DAD" d="M136.968,309h10v10h-10V309z"/>
	<path fill="#8C9DAD" d="M156.968,309h100v10h-100V309z"/>
	<path fill="#8C9DAD" d="M136.968,329h10v10h-10V329z"/>
	<path fill="#8C9DAD" d="M156.968,329h100v10h-100V329z"/>
</g>
</svg>
