<?xml version="1.0" encoding="utf-8"?>
<!-- Generator: Adobe Illustrator 16.0.2, SVG Export Plug-In . SVG Version: 6.00 Build 0)  -->
<!DOCTYPE svg PUBLIC "-//W3C//DTD SVG 1.1//EN" "http://www.w3.org/Graphics/SVG/1.1/DTD/svg11.dtd">
<svg version="1.1" id="Layer_1" xmlns="http://www.w3.org/2000/svg" xmlns:xlink="http://www.w3.org/1999/xlink" x="0px" y="0px"
	 width="500px" height="500px" viewBox="0 0 500 500" enable-background="new 0 0 500 500" xml:space="preserve">
<rect y="1" fill="#E9EBF0" width="500" height="500"/>
<g>
	<path fill="#D1D8E8" d="M23.021,22.44h9.184c2.901,0,5.099,0.168,6.593,0.505c1.495,0.337,2.701,1.019,3.619,2.046
		c0.919,1.026,1.377,2.682,1.377,4.962c0,1.544-0.324,2.619-0.973,3.227c-0.649,0.609-1.928,1.077-3.838,1.402
		c2.128,0.359,3.571,0.955,4.329,1.787s1.138,2.107,1.138,3.827v2.447c0,1.785-0.273,3.105-0.819,3.966
		c-0.547,0.86-1.418,1.447-2.613,1.763c-1.196,0.315-3.645,0.473-7.348,0.473H23.021V22.44z M32.227,26.958v5.871
		c0.394-0.011,0.7-0.017,0.919-0.017c0.903,0,1.479-0.166,1.727-0.497c0.248-0.332,0.372-1.28,0.372-2.846
		c0-0.827-0.103-1.406-0.306-1.737c-0.205-0.332-0.471-0.541-0.799-0.628S33.174,26.968,32.227,26.958z M32.227,36.939v7.388
		c1.297-0.033,2.124-0.185,2.481-0.457c0.357-0.271,0.536-0.94,0.536-2.005v-2.464c0-1.13-0.161-1.815-0.481-2.055
		S33.597,36.971,32.227,36.939z"/>
	<path fill="#D1D8E8" d="M56.958,22.44v26.403h-9.207V22.44H56.958z"/>
	<path fill="#D1D8E8" d="M89.058,22.44v26.403h-8.047L81,31.018l-3.204,17.825h-5.707l-3.378-17.417L68.7,48.843h-8.048V22.44
		h11.912c0.354,1.587,0.718,3.459,1.093,5.613l1.308,6.716L77.08,22.44H89.058z"/>
	<g>
		<path fill="#D1D8E8" d="M98.987,46.483c0.734,0,1.324-0.165,1.767-0.496c0.444-0.331,0.665-0.772,0.665-1.327h3.746l0.043,0.066
			c0.037,1.201-0.545,2.206-1.746,3.015c-1.201,0.81-2.693,1.214-4.475,1.214c-2.281,0-4.039-0.56-5.273-1.68
			c-1.234-1.121-1.852-2.56-1.852-4.317v-0.329c0-1.75,0.615-3.188,1.845-4.316s2.985-1.691,5.267-1.691
			c1.885,0,3.404,0.418,4.559,1.252c1.154,0.835,1.713,1.934,1.675,3.296l-0.028,0.065h-3.76c0-0.615-0.218-1.126-0.65-1.532
			c-0.434-0.406-1.032-0.609-1.795-0.609c-1.094,0-1.865,0.329-2.313,0.987c-0.447,0.657-0.671,1.506-0.671,2.544v0.329
			c0,1.06,0.224,1.914,0.671,2.561C97.108,46.161,97.885,46.483,98.987,46.483z"/>
		<path fill="#D1D8E8" d="M106.918,42.672c0-1.771,0.636-3.224,1.907-4.354c1.273-1.132,3.035-1.697,5.288-1.697
			c2.263,0,4.034,0.563,5.315,1.691s1.923,2.581,1.923,4.36v0.23c0,1.787-0.639,3.241-1.915,4.366
			c-1.277,1.124-3.043,1.686-5.295,1.686c-2.262,0-4.031-0.562-5.309-1.686c-1.277-1.123-1.915-2.579-1.915-4.366V42.672
			L106.918,42.672z M111.032,42.897c0,1.082,0.244,1.95,0.734,2.604c0.49,0.655,1.281,0.981,2.375,0.981
			c1.065,0,1.846-0.329,2.34-0.986c0.494-0.658,0.742-1.524,0.742-2.6v-0.23c0-1.053-0.25-1.912-0.75-2.577
			c-0.498-0.666-1.285-0.998-2.359-0.998c-1.066,0-1.846,0.334-2.34,1.004c-0.494,0.669-0.742,1.526-0.742,2.571V42.897
			L111.032,42.897z"/>
		<path fill="#D1D8E8" d="M132.165,45.451c0-0.352-0.219-0.655-0.656-0.911c-0.438-0.256-1.252-0.483-2.439-0.682
			c-1.809-0.285-3.174-0.708-4.092-1.268c-0.919-0.561-1.379-1.323-1.379-2.29c0-1.025,0.554-1.895,1.662-2.608
			c1.106-0.714,2.588-1.071,4.445-1.071c1.951,0,3.504,0.355,4.658,1.065c1.153,0.71,1.707,1.607,1.66,2.691l-0.027,0.065h-3.987
			c0-0.476-0.195-0.863-0.587-1.164c-0.391-0.301-0.963-0.45-1.717-0.45c-0.67,0-1.195,0.126-1.576,0.379
			c-0.383,0.253-0.572,0.569-0.572,0.95c0,0.366,0.199,0.666,0.601,0.9c0.399,0.234,1.213,0.443,2.438,0.626
			c1.885,0.293,3.284,0.724,4.198,1.291s1.371,1.349,1.371,2.345c0,1.069-0.589,1.942-1.767,2.62
			c-1.178,0.677-2.733,1.016-4.666,1.016c-2.035,0-3.645-0.401-4.827-1.203s-1.746-1.715-1.689-2.74l0.028-0.066h3.774
			c0.028,0.638,0.297,1.099,0.806,1.384c0.509,0.286,1.174,0.429,1.994,0.429c0.763,0,1.344-0.117,1.745-0.352
			S132.165,45.854,132.165,45.451z"/>
		<path fill="#D1D8E8" d="M143.729,33.929v2.91h2.573v2.252h-2.573v6.053c0,0.461,0.123,0.79,0.368,0.988
			c0.245,0.197,0.575,0.296,0.99,0.296c0.216,0,0.402-0.009,0.559-0.027c0.155-0.019,0.336-0.05,0.544-0.094l0.354,2.317
			c-0.415,0.109-0.82,0.192-1.217,0.247c-0.396,0.056-0.824,0.082-1.286,0.082c-1.423,0-2.519-0.304-3.287-0.911
			c-0.768-0.607-1.151-1.571-1.151-2.889v-6.063h-2.233v-2.252h2.233v-2.91H143.729z"/>
	</g>
</g>
<path fill-rule="evenodd" clip-rule="evenodd" fill="#D1D8E8" d="M109.721,306.849c-19.284,3.055-36.787,12.764-56.219,15.441
	c25.806-17.029,54.667-26.865,83.367-37.063c2.038-2.893,5.449-3.027,8.351-4.194c3.018-0.938,6.081-1.75,8.818-3.404
	c5.092-3.617,4.006-9.082,4.118-14.09c0.825-36.994-5.281-30.532,25.132-56.975c16.844-14.646,33.523-29.524,49.771-44.855
	c0.801-0.756,1.63-1.486,2.529-2.115c3.018-2.106,6.371-4.926,9.973-2.934c4.254,2.35,1.236,6.507,1.001,9.938
	c-1.93,28.05-0.278,56.111-0.84,84.148c-0.095,4.72,0.455,9.484-0.827,14.136c0.911,0.223-3.102,3.117,0.911,1.648
	c17.602-1.834,17.625-1.834,17.635-19.521c0.021-41.17-0.014-82.343,0.025-123.512c0.004-4.4-0.436-8.93,1.158-13.111
	c1.304-3.412,2.9-7.834,7.301-2.3c-0.423,2.899-1.745,5.591-1.745,8.603c-0.007,49.075,0.017,98.145,0.023,147.219
	c0.216-49.965-0.302-99.925,0.323-149.859c3.723-7.592,7.763-2.8,11.037,0.138c14.631,13.126,29.732,25.722,44.008,39.249
	c8.668,8.213,19.377,14.373,25.313,25.317c2.824,3.493,2.061,7.646,2.064,11.625c0.027,26.438,0.452,52.887-0.244,79.306
	c-0.224,8.508,2.947,11.197,10.451,12.915c30.179,6.91,58.902,17.908,86.238,32.443c3.314,1.762,7.84,2.256,9.568,8.352
	c-16.73-4.125-31.451-11.977-47.668-14.434c-11.18-0.645-21.965-3.404-32.775-6.055c-9.918-2.229-20.037-3.379-29.93-5.703
	c-3.434-0.805-7.432-0.48-9.329-4.488c0.05-2.869,3.44-1.143,4.036-2.539c-3.702-0.137-6.391,3.008-10.076,3.832
	c-11.756,1.586-23.376-0.846-34.934-1.883c-46.981-4.223-93.48-0.658-139.819,6.814c-12.609,2.031-25.263,3.945-37.599,7.398
	C117.178,307.003,113.352,304.735,109.721,306.849z"/>
<path fill-rule="evenodd" clip-rule="evenodd" fill="#D1D8E8" d="M352.555,106.685c0.123,14.395,0.27,28.792,0.343,43.188
	c0.009,2.031,0.597,4.448-2.188,5.415c-24.928-22.435-49.873-44.851-74.756-67.335c-2.649-2.395-4.932-5.191-7.386-7.802
	c1.488-14.067-0.323-28.212,1.009-42.277c6.668-6.102,7.508,2.358,10.926,4.381c2.869,3.826,6.376,6.936,10.529,9.312
	c3.409,0.816,4.988,4.112,7.801,5.738c2.916,2.292,6.085,4.355,7.436,8.088c4.125,4.532,8.211,9.106,13.557,12.29
	C330.734,87.349,341.646,97.016,352.555,106.685z"/>
<path fill-rule="evenodd" clip-rule="evenodd" fill="#D1D8E8" d="M240.439,86.5c4.297,9.046,1.267,18.67,2.227,27.977
	c0.552,5.322-1.587,10.918,1.596,15.976c-27.255,24.747-54.509,49.493-84.194,76.447c0-14.21,1.51-25.848-0.366-36.91
	c-2.6-15.32,10.684-19.322,17.022-28.257c0.748-2.115,2.098-3.554,4.4-3.926c2.593-0.993,4.519-2.749,5.897-5.135
	c9.966-11.523,21.684-21.095,33.754-30.271c3.375-1.671,6.065-4.125,8.193-7.215C232.643,92.092,234.264,86.289,240.439,86.5z"/>
<text transform="matrix(1 0 0 1 74.8545 405.4238)" fill="#D1D8E8" font-family="'Arial-BoldMT'" font-size="90.2889">IMAGEN</text>
</svg>
