<?xml version="1.0" encoding="utf-8"?>
<!-- Generator: Adobe Illustrator 16.0.2, SVG Export Plug-In . SVG Version: 6.00 Build 0)  -->
<!DOCTYPE svg PUBLIC "-//W3C//DTD SVG 1.1//EN" "http://www.w3.org/Graphics/SVG/1.1/DTD/svg11.dtd">
<svg version="1.1" id="Layer_1" xmlns="http://www.w3.org/2000/svg" xmlns:xlink="http://www.w3.org/1999/xlink" x="0px" y="0px"
	 width="480px" height="480px" viewBox="0 0 480 480" enable-background="new 0 0 480 480" xml:space="preserve">
<path fill="#9BC9FF" d="M248,432v-31.559c0,0-96-0.441-96,0V432H248z"/>
<path fill="#9BC9FF" d="M248,338.527c-0.156-11.199,5.695-21.625,15.336-27.328c50.426-28.707,75.23-87.75,60.441-143.859
	s-65.473-95.25-123.496-95.375c-58.027-0.125-108.879,38.801-123.906,94.848c-15.031,56.047,9.523,115.191,59.824,144.117
	c9.824,5.695,15.852,16.211,15.801,27.566V368h96V338.527z M130.742,218.742L176,264l90.512-90.512L176,264L130.742,218.742z
	 M248,336l-96-0.23L248,336z"/>
<path fill="#9BC9FF" d="M248,400.441V368h-96v32.441C152,400,248,400.441,248,400.441z"/>
<path fill="#9BC9FF" d="M200,472c17.672,0,32-14.328,32-32v-8h-64v8C168,457.672,182.328,472,200,472z"/>
<g>
	<path fill="#1E81CE" d="M200,48c-4.418,0-8-3.582-8-8V8c0-4.418,3.582-8,8-8s8,3.582,8,8v32C208,44.418,204.418,48,200,48z"/>
	<path fill="#1E81CE" d="M120,69.441c-2.859,0-5.504-1.523-6.938-4l-16-27.723c-2.172-3.82-0.852-8.684,2.957-10.883
		c3.809-2.195,8.676-0.91,10.902,2.883l16,27.723c1.426,2.473,1.426,5.52,0,7.996C125.496,67.91,122.856,69.437,120,69.441z"/>
	<path fill="#007BFF" d="M61.434,128c-1.406,0.004-2.785-0.367-4-1.07l-27.723-16c-3.793-2.227-5.078-7.094-2.883-10.902
		c2.199-3.809,7.063-5.129,10.883-2.957l27.723,16c3.133,1.813,4.664,5.504,3.727,9S65.051,128,61.434,128z"/>
	<path fill="#1E81CE" d="M40,208H8c-4.418,0-8-3.582-8-8s3.582-8,8-8h32c4.418,0,8,3.582,8,8S44.418,208,40,208z"/>
	<path fill="#007BFF" d="M33.727,304c-3.621,0-6.789-2.434-7.727-5.93s0.594-7.188,3.727-9l27.723-16
		c2.477-1.449,5.539-1.465,8.031-0.035c2.488,1.43,4.02,4.086,4.012,6.957c-0.004,2.871-1.547,5.516-4.043,6.938l-27.723,16
		C36.512,303.633,35.133,304.004,33.727,304z"/>
	<path fill="#007BFF" d="M366.274,304c-1.406,0.004-2.785-0.367-4-1.07l-27.723-16c-2.496-1.422-4.039-4.066-4.043-6.938
		c-0.008-2.871,1.523-5.527,4.012-6.957c2.492-1.43,5.555-1.414,8.031,0.035l27.723,16c3.133,1.813,4.664,5.504,3.727,9
		S369.895,304,366.274,304z"/>
	<path fill="#1E81CE" d="M392,208h-32c-4.418,0-8-3.582-8-8s3.582-8,8-8h32c4.418,0,8,3.582,8,8S396.418,208,392,208z"/>
	<path fill="#007BFF" d="M338.567,128c-3.617,0-6.789-2.434-7.727-5.93s0.594-7.188,3.727-9l27.723-16
		c2.477-1.449,5.539-1.465,8.031-0.035c2.488,1.43,4.02,4.086,4.012,6.957c-0.004,2.871-1.547,5.516-4.043,6.938l-27.723,16
		C341.352,127.633,339.973,128.004,338.567,128z"/>
	<path fill="#007BFF" d="M280,69.441c-2.855-0.004-5.496-1.531-6.922-4.004c-1.426-2.477-1.426-5.523,0-7.996l16-27.723
		c2.227-3.793,7.094-5.078,10.902-2.883c3.809,2.199,5.129,7.063,2.957,10.883l-16,27.723C285.504,67.918,282.86,69.441,280,69.441z
		"/>
	<path fill="#007BFF" d="M200,48c-4.418,0-8-3.582-8-8V8c0-4.418,3.582-8,8-8s8,3.582,8,8v32C208,44.418,204.418,48,200,48z"/>
	<path fill="#007BFF" d="M120,69.441c-2.859,0-5.504-1.523-6.938-4l-16-27.723c-2.172-3.82-0.852-8.684,2.957-10.883
		c3.809-2.195,8.676-0.91,10.902,2.883l16,27.723c1.426,2.473,1.426,5.52,0,7.996C125.496,67.91,122.856,69.437,120,69.441z"/>
	<path fill="#007BFF" d="M40,208H8c-4.418,0-8-3.582-8-8s3.582-8,8-8h32c4.418,0,8,3.582,8,8S44.418,208,40,208z"/>
	<path fill="#007BFF" d="M392,208h-32c-4.418,0-8-3.582-8-8s3.582-8,8-8h32c4.418,0,8,3.582,8,8S396.418,208,392,208z"/>
	<path fill="#007BFF" d="M206.864,64.168c-37.215-1.879-73.57,11.59-100.574,37.266S64,162.738,64,200
		c0.07,48.652,26.063,93.582,68.207,117.887c7.328,4.273,11.824,12.129,11.793,20.609V432c0,4.418,3.582,8,8,8h8
		c0,22.09,17.91,40,40,40s40-17.91,40-40h8c4.418,0,8-3.582,8-8v-93.473c-0.156-8.316,4.148-16.082,11.289-20.352
		c52.512-29.902,78.992-90.867,65.008-149.656S267.215,67.222,206.864,64.168z M240,344v16h-80v-16H240z M160,376h80v16h-80V376z
		 M200,464c-13.254,0-24-10.746-24-24h48C224,453.254,213.254,464,200,464z M160,424v-16h80v16H160z M259.375,304.273
		c-8.934,5.18-15.414,13.727-17.992,23.727l-82.863-0.199c-2.75-10.035-9.336-18.582-18.336-23.801
		C103,282.558,80.063,242.922,80,200c0-32.879,13.492-64.32,37.32-86.973c23.832-22.656,55.914-34.539,88.75-32.875
		c53.246,2.703,98.324,40.211,110.66,92.078S305.703,277.886,259.375,304.273z"/>
	<path fill="#FFFFFF" stroke="#FFFFFF" stroke-width="14" stroke-miterlimit="10" d="M176,272c-2.121,0-4.156-0.844-5.656-2.344
		l-45.254-45.258c-3.035-3.137-2.992-8.129,0.094-11.215s8.078-3.129,11.215-0.094L176,252.687l84.848-84.855
		c3.125-3.125,8.195-3.125,11.32,0s3.125,8.195,0,11.32l-90.512,90.504C180.156,271.156,178.121,272,176,272z"/>
</g>
</svg>
