<svg height="512" viewBox="0 0 64 64" width="512" xmlns="http://www.w3.org/2000/svg"><g id="Bill-2" data-name="Bill"><path d="m20 11h14v10h-14z" fill="#9bc9ff"/><path d="m19 61h42v-26h-42zm4-19a3 3 0 0 0 3-3h28a3 3 0 0 0 3 3v12a3 3 0 0 0 -3 3h-28a3 3 0 0 0 -3-3z" fill="#9bc9ff"/><circle cx="40" cy="48" fill="#9bc9ff" r="5"/><circle cx="52" cy="22" fill="#9bc9ff" r="9"/><g fill="#1e81ce"><path d="m14.36 54.231-1.76 1.469-1.764-1.468a1 1 0 0 0 -1.28 0l-1.756 1.468-1.762-1.468a1 1 0 0 0 -1.281 0l-.757.631v-49.855l1.047.79a1 1 0 0 0 1.205 0l2.048-1.545 2.041 1.547a1 1 0 0 0 1.207 0l2.041-1.543 2.04 1.543a1 1 0 0 0 1.207 0l2.038-1.543 2.033 1.543a1 1 0 0 0 1.208 0l2.04-1.543 2.038 1.543a1 1 0 0 0 1.207 0l2.037-1.543 2.04 1.543a1 1 0 0 0 1.207 0l2.037-1.543 2.037 1.543a1 1 0 0 0 1.208 0l1.034-.787v25.987a1 1 0 0 0 2 0v-28a1 1 0 0 0 -1.6-.8l-2.039 1.546-2.037-1.546a1 1 0 0 0 -1.207 0l-2.037 1.546-2.039-1.546a1 1 0 0 0 -1.207 0l-2.034 1.546-2.041-1.546a1 1 0 0 0 -1.207 0l-2.039 1.546-2.034-1.546a1 1 0 0 0 -1.208 0l-2.039 1.546-2.04-1.546a1 1 0 0 0 -1.207 0l-2.041 1.546-2.044-1.546a1 1 0 0 0 -1.2 0l-2.051 1.547-2.049-1.547a1 1 0 0 0 -1.6.8v54a1 1 0 0 0 1.641.768l1.759-1.468 1.758 1.466a1 1 0 0 0 1.282 0l1.76-1.466 1.763 1.467a1 1 0 0 0 1.279 0l2.4-2a1 1 0 0 0 -1.28-1.538z"/><path d="m8 19v1a2 2 0 0 0 2 2l-.006 1.88 2 .006.006-1.886a2 2 0 0 0 2-2v-2a2 2 0 0 0 -2-2h-2v-2h2v1h2v-1a2 2 0 0 0 -2-2h-.006l.006-2h-2l-.006 2a2 2 0 0 0 -1.994 2v2a2 2 0 0 0 2 2h2v2h-2v-1z"/><path d="m35 10h-16v12h16zm-2 10h-12v-8h12z"/><path d="m8 26h27v2h-27z"/><path d="m8 30h27v2h-27z"/><path d="m8 34h8v2h-8z"/><path d="m8 38h8v2h-8z"/><path d="m8 42h8v2h-8z"/><path d="m8 46h8v2h-8z"/><path d="m8 50h8v2h-8z"/><path d="m61 34h-42a1 1 0 0 0 -1 1v26a1 1 0 0 0 1 1h42a1 1 0 0 0 1-1v-26a1 1 0 0 0 -1-1zm-1 26h-40v-24h40z"/><path d="m23 55a2 2 0 0 1 2 2 1 1 0 0 0 1 1h28a1 1 0 0 0 1-1 2 2 0 0 1 2-2 1 1 0 0 0 1-1v-12a1 1 0 0 0 -1-1 2 2 0 0 1 -2-2 1 1 0 0 0 -1-1h-28a1 1 0 0 0 -1 1 2 2 0 0 1 -2 2 1 1 0 0 0 -1 1v12a1 1 0 0 0 1 1zm1-12.126a4.015 4.015 0 0 0 2.873-2.874h26.254a4.015 4.015 0 0 0 2.873 2.874v10.252a4.015 4.015 0 0 0 -2.873 2.874h-26.254a4.015 4.015 0 0 0 -2.873-2.874z"/><path d="m50 49h2a1 1 0 0 0 0-2h-2a1 1 0 0 0 0 2z"/><path d="m28 49h2a1 1 0 0 0 0-2h-2a1 1 0 0 0 0 2z"/><path d="m40 54a6 6 0 1 0 -6-6 6.006 6.006 0 0 0 6 6zm0-10a4 4 0 1 1 -4 4 4 4 0 0 1 4-4z"/><path d="m52 32a10 10 0 1 0 -10-10 10.011 10.011 0 0 0 10 10zm0-18a8 8 0 1 1 -8 8 8.009 8.009 0 0 1 8-8z"/><path d="m50.994 27 .006 2h2l-.006-2h.006a2 2 0 0 0 2-2v-2a2 2 0 0 0 -2-2h-2v-2h2v1h2v-1a2 2 0 0 0 -2-2h-.006l.006-2h-2l-.006 2a2 2 0 0 0 -1.994 2v2a2 2 0 0 0 2 2h2v2h-2v-1h-2v1a2 2 0 0 0 1.994 2z"/></g></g></svg>