<svg height="480pt" viewBox="0 0 480 480" width="480pt" xmlns="http://www.w3.org/2000/svg"><path d="m264 240c0 13.253906-10.746094 24-24 24s-24-10.746094-24-24 10.746094-24 24-24 24 10.746094 24 24zm0 0" fill="#9bc9ff"/><path d="m96 48v-40h-88v168h128v-128zm0 0" fill="#9bc9ff"/><path d="m384 304v40h-40v128h128v-168zm0 0" fill="#9bc9ff"/><g fill="#1e81ce"><path d="m240 272c-17.671875 0-32-14.328125-32-32s14.328125-32 32-32 32 14.328125 32 32-14.328125 32-32 32zm0-48c-8.835938 0-16 7.164062-16 16s7.164062 16 16 16 16-7.164062 16-16-7.164062-16-16-16zm0 0"/><path d="m32 96h16v16h-16zm0 0"/><path d="m64 96h48v16h-48zm0 0"/><path d="m32 120h16v16h-16zm0 0"/><path d="m64 120h48v16h-48zm0 0"/><path d="m0 0v184h144v-139.3125l-44.6875-44.6875zm104 27.3125 12.6875 12.6875h-12.6875zm-88 140.6875v-152h72v40h40v112zm0 0"/><path d="m32 72h16v16h-16zm0 0"/><path d="m64 72h48v16h-48zm0 0"/><path d="m219.3125 40 20.289062-20.289062-11.3125-11.3125-39.601562 39.601562 39.601562 39.601562 11.3125-11.3125-20.289062-20.289062h204.6875v224h16v-240zm0 0"/><path d="m307.910156 264h36.089844v-48h-36.089844c-.847656-2.394531-1.820312-4.742188-2.917968-7.03125l25.519531-25.527344-33.953125-33.953125-25.527344 25.519531c-2.289062-1.097656-4.636719-2.070312-7.03125-2.917968v-36.089844h-48v36.089844c-2.394531.847656-4.742188 1.820312-7.03125 2.917968l-25.527344-25.519531-33.953125 33.953125 25.519531 25.527344c-1.097656 2.289062-2.070312 4.636719-2.917968 7.03125h-36.089844v48h36.089844c.847656 2.394531 1.820312 4.742188 2.917968 7.03125l-25.519531 25.527344 33.953125 33.953125 25.527344-25.519531c2.289062 1.097656 4.636719 2.070312 7.03125 2.917968v36.089844h48v-36.089844c2.394531-.847656 4.742188-1.820312 7.03125-2.917968l25.527344 25.519531 33.953125-33.953125-25.519531-25.527344c1.097656-2.289062 2.070312-4.636719 2.917968-7.03125zm0 32.558594-11.351562 11.328125-22.847656-22.847657-5.367188 3.199219c-4.484375 2.683594-9.335938 4.699219-14.398438 5.984375l-5.984374 1.601563v32.175781h-15.960938v-32.183594l-5.984375-1.601562c-5.050781-1.289063-9.886719-3.304688-14.359375-5.984375l-5.367188-3.199219-22.847656 22.855469-11.328125-11.328125 22.847657-22.847656-3.199219-5.367188c-2.683594-4.484375-4.699219-9.335938-5.984375-14.398438l-1.601563-5.984374h-32.175781v-15.960938h32.183594l1.601562-5.984375c1.289063-5.050781 3.304688-9.886719 5.984375-14.359375l3.199219-5.367188-22.855469-22.847656 11.328125-11.328125 22.847656 22.847657 5.367188-3.199219c4.472656-2.679688 9.308594-4.695313 14.359375-5.984375l5.984375-1.601563v-32.175781h16v32.183594l5.984375 1.601562c5.0625 1.285156 9.914063 3.300782 14.398437 5.984375l5.371094 3.199219 22.847656-22.847656 11.328126 11.328125-22.890626 22.839843 3.199219 5.367188c2.679688 4.472656 4.695313 9.308594 5.984375 14.359375l1.601563 5.984375h32.175781v16h-32.183594l-1.601562 5.984375c-1.285156 5.0625-3.300782 9.914063-5.984375 14.398437l-3.199219 5.371094zm0 0"/><path d="m380.6875 296-44.6875 44.6875v139.3125h144v-184zm-4.6875 27.3125v12.6875h-12.6875zm88 140.6875h-112v-112h40v-40h72zm0 0"/><path d="m368 368h16v16h-16zm0 0"/><path d="m400 368h48v16h-48zm0 0"/><path d="m368 392h16v16h-16zm0 0"/><path d="m400 392h48v16h-48zm0 0"/><path d="m368 416h16v16h-16zm0 0"/><path d="m400 416h48v16h-48zm0 0"/><path d="m240.398438 411.710938 20.289062 20.289062h-204.6875v-232h-16v248h220.6875l-20.289062 20.289062 11.3125 11.3125 39.601562-39.601562-39.601562-39.601562zm0 0"/></g></svg>