<?xml version="1.0" encoding="utf-8"?>
<!-- Generator: Adobe Illustrator 16.0.2, SVG Export Plug-In . SVG Version: 6.00 Build 0)  -->
<!DOCTYPE svg PUBLIC "-//W3C//DTD SVG 1.1//EN" "http://www.w3.org/Graphics/SVG/1.1/DTD/svg11.dtd">
<svg version="1.1" id="Layer_1" xmlns="http://www.w3.org/2000/svg" xmlns:xlink="http://www.w3.org/1999/xlink" x="0px" y="0px"
	 width="480px" height="480px" viewBox="0 0 480 480" enable-background="new 0 0 480 480" xml:space="preserve">
<path fill="#9BC9FF" d="M275.84,178.961c-5.077-5.773-10.979-10.758-17.52-14.801c-12.68-7.957-27.353-12.173-42.32-12.16l-64,64
	l-64-64c-44.155,0.063-79.938,35.844-80,80v101.603c0.013,6.328,3.738,12.06,9.521,14.637l121.52,54
	c8.25,3.685,17.672,3.685,25.922,0l121.521-54c5.781-2.577,9.508-8.309,9.52-14.637V232
	C296.035,212.441,288.856,193.558,275.84,178.961z"/>
<path fill="#9BC9FF" d="M408,152h-8l-32,32l-32.479-32H328c-20.729-0.013-40.18,10.039-52.16,26.961
	C288.856,193.559,296.035,212.441,296,232v76.398l67.281,26.16c3.07,0.961,6.367,0.961,9.438,0L461.762,300
	c6.172-2.396,10.237-8.341,10.237-14.962V216C472,180.652,443.348,152,408,152z"/>
<g>
	<path fill="#007BFF" d="M152,152.368c39.767,0,72-34.107,72-76.185S191.766,0,152,0c-39.766,0-72,34.106-72,76.184
		C80.043,118.24,112.254,152.323,152,152.368z M152,16.929c30.931,0,56,26.527,56,59.254c0,32.728-25.069,59.254-56,59.254
		c-30.93,0-56-26.526-56-59.254C96.039,43.477,121.09,16.971,152,16.929z"/>
	<path fill="#007BFF" d="M368,143.903c30.931,0,56-26.526,56-59.254c0-32.727-25.069-59.254-56-59.254c-30.93,0-56,26.527-56,59.254
		C312.039,117.355,337.091,143.862,368,143.903z M368,42.323c22.091,0,40,18.951,40,42.324s-17.909,42.325-40,42.325
		c-22.09,0-40-18.951-40-42.325C328.028,61.283,345.919,42.353,368,42.323z"/>
	<path fill="#007BFF" d="M408,152.368h-8c-2.12,0-4.155,0.893-5.655,2.479l-26.398,27.933l-26.815-27.933
		c-1.492-1.558-3.504-2.435-5.603-2.438H328c-20.055,0.036-39.188,8.914-52.801,24.497c-16.047-15.876-37.229-24.658-59.199-24.538
		c-2.121,0-4.155,0.893-5.655,2.479L152,216.582l-58.344-61.734c-1.5-1.587-3.535-2.479-5.656-2.479
		c-48.574,0.069-87.934,41.717-88,93.112v107.507c-0.004,10.05,5.59,19.154,14.273,23.227l121.512,57.129
		c10.316,4.874,22.105,4.874,32.422,0l121.521-57.138c8.68-4.071,14.272-13.174,14.272-23.218v-14.297l56.923,23.403
		c2.237,0.731,4.569,1.107,6.918,1.111c2.641-0.021,5.262-0.459,7.776-1.307l89.039-36.575c9.277-3.766,15.383-13.206,15.344-23.722
		v-73.051C479.957,186.496,447.746,152.413,408,152.368z M288,352.988c0,3.365-1.887,6.407-4.801,7.756l-121.52,57.146
		c-6.177,2.918-13.238,2.918-19.414,0L20.801,360.743c-2.913-1.349-4.801-4.391-4.801-7.756V245.481
		c0.051-40.736,30.34-74.245,68.801-76.108l61.599,65.182c3.125,3.307,8.19,3.307,11.313,0l61.603-65.182
		c12.363,0.583,24.371,4.547,34.854,11.507c5.888,3.859,11.199,8.618,15.777,14.119c11.672,13.907,18.102,31.879,18.055,50.482
		L288,352.988L288,352.988z M464,301.603c0.009,3.518-2.038,6.675-5.145,7.933l-88.457,36.373c-1.344,0.495-2.797,0.569-4.184,0.215
		L304,320.534v-75.054c0-2.715-0.129-5.418-0.352-8.101c-0.074-0.849-0.207-1.752-0.305-2.633c-0.191-1.786-0.398-3.571-0.688-5.341
		c-0.176-1.042-0.397-2.065-0.608-3.1c-0.313-1.583-0.642-3.166-1.031-4.72c-0.273-1.087-0.582-2.162-0.887-3.229
		c-0.427-1.479-0.871-2.942-1.367-4.394c-0.371-1.091-0.762-2.166-1.176-3.24c-0.531-1.396-1.099-2.778-1.691-4.149
		c-0.461-1.066-0.935-2.125-1.438-3.166c-0.641-1.344-1.336-2.658-2.043-3.969c-0.551-1.017-1.086-2.034-1.66-3.021
		c-0.801-1.331-1.602-2.617-2.473-3.902c-0.602-0.905-1.168-1.831-1.793-2.711c-0.129-0.178-0.23-0.372-0.359-0.55
		c10.625-12.672,25.859-19.936,41.872-19.959h4.237l30.16,31.421c3.133,3.265,8.164,3.249,11.273-0.041l29.641-31.38H408
		c30.91,0.042,55.962,26.548,56,59.254V301.603z"/>
</g>
</svg>
