<svg height="480pt" viewBox="0 0 480.00086 480" width="480pt" xmlns="http://www.w3.org/2000/svg"><g fill="#55c9f4"><path d="m264 192c26.511719 0 48-21.488281 48-48v-72c0-35.347656-28.652344-64-64-64h-16c-35.347656 0-64 28.652344-64 64v72c0 26.511719 21.492188 48 48 48zm0 0"/><path d="m389 200c14.910156 0 27-12.085938 27-27v-33c0-19.882812-16.117188-36-36-36h-8c-19.882812 0-36 16.117188-36 36v33c0 14.914062 12.089844 27 27 27zm0 0"/><path d="m117 200c14.910156 0 27-12.085938 27-27v-33c0-19.882812-16.117188-36-36-36h-8c-19.882812 0-36 16.117188-36 36v33c0 14.914062 12.089844 27 27 27zm0 0"/></g><path d="m216 200h48c30.914062-.035156 55.964844-25.085938 56-56v-72c-.042969-39.746094-32.253906-71.9570312-72-72h-16c-39.746094.0429688-71.957031 32.253906-72 72v72c.035156 30.914062 25.085938 55.964844 56 56zm-40-128c.035156-30.914062 25.085938-55.964844 56-56h16c30.914062.035156 55.964844 25.085938 56 56v72c-.027344 22.082031-17.917969 39.972656-40 40h-48c-22.082031-.027344-39.972656-17.917969-40-40zm0 0" fill="#006d95"/><path d="m449.601562 230.402344c-12.4375-12.480469-27.859374-21.566406-44.800781-26.402344 11.714844-5.90625 19.132813-17.878906 19.199219-31v-33c-.027344-24.289062-19.710938-43.972656-44-44h-8c-24.289062.027344-43.972656 19.710938-44 44v33c.046875 13.171875 7.5 25.191406 19.273438 31.097656-12.585938 3.613282-24.367188 9.585938-34.722657 17.597656-46.644531-18.242187-98.453125-18.242187-145.101562 0-10.355469-8.011718-22.136719-13.984374-34.722657-17.597656 11.777344-5.902344 19.230469-17.925781 19.273438-31.097656v-33c-.027344-24.289062-19.710938-43.972656-44-44h-8c-24.289062.027344-43.972656 19.710938-44 44v33c.042969 13.144531 7.464844 25.148438 19.199219 31.0625-44.578125 12.769531-75.277344 53.566406-75.199219 99.9375v32c0 4.417969 3.582031 8 8 8h42.558594c-6.992188 20.613281-10.558594 42.234375-10.558594 64v64c0 4.417969 3.582031 8 8 8h384c4.417969 0 8-3.582031 8-8v-64c0-21.765625-3.566406-43.386719-10.558594-64h42.558594c4.417969 0 8-3.582031 8-8v-32c.101562-27.609375-10.84375-54.109375-30.398438-73.597656zm-105.601562-90.402344c0-15.464844 12.535156-28 28-28h8c15.464844 0 28 12.535156 28 28v33c-.007812 10.488281-8.511719 18.992188-19 19h-26c-10.488281-.007812-18.992188-8.511719-19-19zm-272 0c0-15.464844 12.535156-28 28-28h8c15.464844 0 28 12.535156 28 28v33c-.007812 10.488281-8.511719 18.992188-19 19h-26c-10.488281-.007812-18.992188-8.511719-19-19zm-56 188v-24c-.015625-31.945312 17.292969-61.386719 45.210938-76.910156 27.921874-15.523438 62.0625-14.6875 89.1875 2.183594-41.734376 21.03125-74.847657 55.9375-93.644532 98.726562zm408 136h-368v-56c-.003906-22.285156 4.0625-44.382812 12-65.207031 2.449219-1.390625 3.972656-3.976563 4-6.792969-.046875-.683594-.183594-1.359375-.40625-2.007812 29.339844-66.820313 95.417969-109.972657 168.398438-109.972657 72.980468 0 139.058593 43.152344 168.398437 109.972657-.21875.648437-.351563 1.324218-.390625 2.007812.027344 2.816406 1.550781 5.402344 4 6.792969 7.9375 20.824219 12.003906 42.921875 12 65.207031zm40-136h-40.75c-18.796875-42.789062-51.910156-77.699219-93.648438-98.726562 27.121094-16.898438 61.277344-17.75 89.207032-2.21875 27.929687 15.527343 45.234375 44.988281 45.191406 76.945312zm0 0" fill="#006d95"/></svg>