<?xml version="1.0" encoding="utf-8"?>
<!-- Generator: Adobe Illustrator 16.0.2, SVG Export Plug-In . SVG Version: 6.00 Build 0)  -->
<!DOCTYPE svg PUBLIC "-//W3C//DTD SVG 1.1//EN" "http://www.w3.org/Graphics/SVG/1.1/DTD/svg11.dtd">
<svg version="1.1" id="Layer_1" xmlns="http://www.w3.org/2000/svg" xmlns:xlink="http://www.w3.org/1999/xlink" x="0px" y="0px"
	 width="480px" height="480px" viewBox="0 0 480 480" enable-background="new 0 0 480 480" xml:space="preserve">
<rect x="0" y="0" fill="#F5F6F8" width="480" height="480"/>
<path fill="#FFFFFF" d="M298.916,131.599c0,34.595-28.042,62.639-62.639,62.639c-34.595,0-62.639-28.043-62.639-62.639
	c0-34.596,28.043-62.639,62.639-62.639C270.874,68.96,298.916,97.003,298.916,131.599z"/>
<g>
	<path fill="#007BFF" d="M224.967,409.22h-0.518c-5.686-0.503-11.33-1.264-16.924-2.237c-0.321-0.058-0.641-0.093-0.957-0.154
		c-5.467-0.977-10.879-2.19-16.237-3.607l-1.296-0.332c-5.226-1.417-10.394-3.063-15.488-4.892
		c-0.528-0.189-1.061-0.356-1.588-0.552c-4.994-1.835-9.898-3.892-14.728-6.114c-0.599-0.268-1.2-0.525-1.799-0.811
		c-4.737-2.192-9.38-4.662-13.935-7.261c-0.643-0.363-1.292-0.729-1.935-1.088c-4.482-2.616-8.862-5.423-13.16-8.385
		c-0.65-0.453-1.307-0.893-1.954-1.346c-4.222-2.994-8.338-6.176-12.347-9.502L111,361.976v-61.635
		c0.054-44.39,36.023-80.359,80.413-80.413h102.344c44.39,0.054,80.359,36.023,80.413,80.413v61.642l-0.972,0.811
		c-4.086,3.412-8.28,6.639-12.589,9.688c-0.571,0.4-1.149,0.781-1.717,1.174c-4.348,3.021-8.803,5.861-13.364,8.531
		c-0.571,0.332-1.156,0.646-1.724,0.975c-4.623,2.631-9.324,5.114-14.118,7.354c-0.55,0.256-1.103,0.496-1.658,0.731
		c-4.869,2.245-9.816,4.312-14.846,6.161c-0.5,0.186-1.004,0.346-1.465,0.521c-5.118,1.835-10.308,3.494-15.563,4.919l-1.26,0.313
		c-5.365,1.418-10.78,2.639-16.256,3.62c-0.314,0.059-0.628,0.097-0.942,0.146c-5.601,0.978-11.251,1.738-16.939,2.245h-0.518
		c-5.848,0.503-11.697,0.774-17.619,0.774C236.7,409.946,230.802,409.723,224.967,409.22z"/>
	<path fill="#007BFF" d="M236.277,62c-38.439,0-69.599,31.159-69.599,69.599c0,38.439,31.16,69.599,69.599,69.599
		c38.439,0,69.599-31.16,69.599-69.599C305.835,93.177,274.699,62.041,236.277,62z M236.277,187.278
		c-30.752,0-55.679-24.927-55.679-55.679c0-30.753,24.927-55.679,55.679-55.679c30.753,0,55.679,24.926,55.679,55.679
		C291.923,162.334,267.012,187.243,236.277,187.278z"/>
</g>
<path fill="#9BC9FF" d="M284.929,228.048h-88.025c-41.67,0-75.45,33.779-75.45,75.45v55.958c68.521,59.521,170.403,59.521,238.924,0
	v-55.958C360.379,261.827,326.6,228.048,284.929,228.048z"/>
</svg>
